<?xml version="1.0" encoding="iso-8859-1"?>
<!-- Generator: Adobe Illustrator 19.0.0, SVG Export Plug-In . SVG Version: 6.00 Build 0)  -->
<svg version="1.1" id="Layer_1" xmlns="http://www.w3.org/2000/svg" xmlns:xlink="http://www.w3.org/1999/xlink" x="0px" y="0px"
	 viewBox="0 0 511.999 511.999" style="enable-background:new 0 0 511.999 511.999;" xml:space="preserve">
<g>
	<g>
		<circle cx="415.819" cy="63.297" r="39.397"/>
	</g>
</g>
<g>
	<g>
		<path d="M466.672,116.818c-1.431,0-48.938,0-76.055,0c-12.039,0-23.858,3.461-33.971,9.993L314.558,154l-17.96-26.753l9.41-44.427
			c1.866-8.807-2.78-17.473-10.674-21.01l9.273-43.778c0.64-3.022-1.291-5.99-4.313-6.631l-15.809-3.348
			c-3.022-0.641-5.99,1.291-6.631,4.313l-9.273,43.778c-8.651,0.035-16.41,6.072-18.276,14.879l-13.898,65.615
			c-0.852,4.024,1.72,7.978,5.744,8.831l24.36,5.159l26.895,40.064c5.779,8.608,17.387,10.996,26.094,5.371l45.51-29.401
			l0.009,314.601c0,12.596,10.211,22.807,22.807,22.807s22.807-10.211,22.807-22.807V298.96h9.847v182.302
			c0,12.596,10.211,22.807,22.807,22.807s22.807-10.211,22.807-22.807c0-85.303,0-230.769,0-319.277
			c0-2.137,1.7-12.636,3.836-12.699s3.935,1.587,4.057,3.72c0,0.001,0,8.753,0,8.754v139.631
			c0.052,10.465,8.902,18.911,19.354,18.911c0.032,0,0.066,0,0.097,0c10.497-0.052,18.613-8.604,18.56-19.101V161.57
			C511.877,136.893,491.349,116.818,466.672,116.818z"/>
	</g>
</g>
<g>
	<g>
		<circle cx="83.026" cy="63.426" r="41.357"/>
	</g>
</g>
<g>
	<g>
		<path d="M228.505,99.336l2.576-34.75c0.088-1.192-0.303-2.37-1.088-3.272c-0.784-0.902-1.896-1.454-3.089-1.532l-37.076-2.419
			c-2.455-0.16-4.58,1.689-4.762,4.141l-2.552,34.421c-0.454,6.134,1.56,12.197,5.597,16.838c1.788,2.056,3.921,3.734,6.26,5.027
			l-1.916,20.084c-3.045,0.788-5.95,2.299-8.435,4.567l-31.054,28.323l-19.668-37.198c-5.352-10.123-15.897-16.484-27.347-16.482
			c-16.748,0.003-36.411-0.021-48.058-0.021c-15.429,0-27.937,12.613-27.937,28.042v143.338l-2.399,68.579L0.556,476.666
			c-2.73,12.097,4.863,24.118,16.962,26.848c12.102,2.73,24.119-4.867,26.848-16.96l27.447-121.625
			c0.297-1.317,0.474-2.656,0.531-4.004c3.334-79.669,2.985-70.768,2.986-72.484h7.602l23.846,65.015L96.601,479.81
			c-0.996,12.361,8.219,23.19,20.58,24.186c12.378,0.992,23.191-8.23,24.186-20.58l10.573-131.265
			c0.261-3.235-0.184-6.488-1.301-9.534l-20.017-54.578c0,0-0.899,0.615-48.133-11.526c-12.716-3.268-22.961-12.595-27.201-25.021
			c-1.538-4.507-3.769-30.877-9.457-85.447l27.548,79.148c2.176,6.247,7.339,11.086,13.878,12.767
			c0.627,0.161,77.96,20.037,77.215,19.846c10.656,2.739,21.545-3.671,24.292-14.36c2.748-10.688-3.698-21.553-14.359-24.294
			c-6.82-1.753-60.155-15.461-66.852-17.182l-24.947-71.674l36.796,54.941l42.9,11.026l33.678-30.717l20.166,1.505
			c0.222,0.017,0.441,0.024,0.659,0.024c4.536,0,8.372-3.502,8.715-8.098c0.36-4.818-3.256-9.015-8.073-9.375l-4.141-0.309
			c5.763-7.523,5.513-18.309-1.097-25.557c-0.782-0.858-1.633-1.612-2.518-2.301l2.063-21.627
			C220.829,117.251,227.769,109.27,228.505,99.336z"/>
	</g>
</g>
<g>
</g>
<g>
</g>
<g>
</g>
<g>
</g>
<g>
</g>
<g>
</g>
<g>
</g>
<g>
</g>
<g>
</g>
<g>
</g>
<g>
</g>
<g>
</g>
<g>
</g>
<g>
</g>
<g>
</g>
</svg>
