<?xml version="1.0" encoding="iso-8859-1"?>
<!-- Generator: Adobe Illustrator 19.0.0, SVG Export Plug-In . SVG Version: 6.00 Build 0)  -->
<svg version="1.1" id="Layer_1" xmlns="http://www.w3.org/2000/svg" xmlns:xlink="http://www.w3.org/1999/xlink" x="0px" y="0px"
	 viewBox="0 0 511.999 511.999" style="enable-background:new 0 0 511.999 511.999;" xml:space="preserve">
<g>
	<g>
		<path d="M152.325,10.327c-4.518-9.168-15.616-12.934-24.778-8.415c-9.167,4.518-12.934,15.612-8.415,24.778l25.57,51.871
			l20.582-5.915c2.127-6.216,5.333-11.943,9.4-16.963L152.325,10.327z"/>
	</g>
</g>
<g>
	<g>
		<path d="M260.428,95.259c-0.016,0.004-0.03,0.011-0.046,0.016c-22.894,6.579-52.901,15.202-75.709,21.756
			c-0.069,0.022-0.138,0.043-0.208,0.064c5.661,14.981,20.129,25.639,37.092,25.639c21.896,0,39.646-17.75,39.646-39.646
			C261.204,100.407,260.935,97.79,260.428,95.259z"/>
	</g>
</g>
<g>
	<g>
		<path d="M255.904,79.662c-6.047-21.04-28.008-33.203-49.054-27.153c-15.604,4.484-26.312,17.72-28.346,32.841l-30.928,8.888
			c-4.324,1.242-6.822,5.755-5.58,10.081c1.243,4.328,5.761,6.822,10.079,5.58c0.001-0.001,18.92-5.439,103.924-29.868
			C255.967,79.907,255.94,79.784,255.904,79.662z"/>
	</g>
</g>
<g>
	<g>
		<path d="M386.427,113.946l-16.925-1.814c-5.769-14.227-24.979-16.057-33.498-3.59c-26.243-2.812-24.73-2.686-25.593-2.699
			c-2.592-5.651-7.992-9.841-14.622-10.552c-10.201-1.094-19.027,6.411-20.075,16.188c-1.065,9.945,6.116,18.994,16.188,20.075
			c6.339,0.678,12.63-2.019,16.525-7.212c0.758,0.152-0.068,0.036,15.804,1.736l-25.193,37.544l-72.753-0.328l29.717-8.295
			c0,0-5.716,0.14-53.717,0.14c-15.418-5.727-27.614-18.121-33.087-33.659l-9.073,2.608l10.794,54.244
			c-0.045,0.481-0.23,10.426-0.23,140.733l-2.971,70.977l-16.279,95.127c-2.138,12.496,6.258,24.36,18.755,26.498
			c12.501,2.138,24.36-6.262,26.498-18.755l16.526-96.574c0.165-0.964,0.269-1.936,0.309-2.913
			c3.286-78.523,3.075-73.17,3.076-74.096h7.749l23.836,64.986l-21.17,99.968c-2.627,12.403,5.298,24.587,17.701,27.213
			c12.401,2.627,24.586-5.298,27.213-17.701l22.538-106.429c0.894-4.222,0.581-8.61-0.906-12.661l-21.551-58.758V211.918
			l-43.23-10.356c0.007,0,80.423,0.362,80.423,0.362c6.347,0,12.346-3.196,15.887-8.471l42.121-62.77l17.222,1.846
			c5.051,0.541,9.731-3.107,10.288-8.297C395.279,119.047,391.483,114.487,386.427,113.946z"/>
	</g>
</g>
<g>
</g>
<g>
</g>
<g>
</g>
<g>
</g>
<g>
</g>
<g>
</g>
<g>
</g>
<g>
</g>
<g>
</g>
<g>
</g>
<g>
</g>
<g>
</g>
<g>
</g>
<g>
</g>
<g>
</g>
</svg>
