<?xml version="1.0" encoding="iso-8859-1"?>
<!-- Generator: Adobe Illustrator 19.0.0, SVG Export Plug-In . SVG Version: 6.00 Build 0)  -->
<svg version="1.1" id="Layer_1" xmlns="http://www.w3.org/2000/svg" xmlns:xlink="http://www.w3.org/1999/xlink" x="0px" y="0px"
	 viewBox="0 0 511.996 511.996" style="enable-background:new 0 0 511.996 511.996;" xml:space="preserve">
<g>
	<g>
		<circle cx="151.252" cy="88.112" r="33.156"/>
	</g>
</g>
<g>
	<g>
		<path d="M165.105,292.948c0-13.105,0-107.34,0-120.396v-0.036v-0.036c0.077-15.329,6.926-30.329,19.486-40.642
			c-10.788,0-65.648,0-76.416,0c-21.096,0-38.344,16.898-38.449,37.749v29.48l-46.434-23.775
			c-7.862-4.026-17.503-0.915-21.531,6.949c-4.026,7.864-0.916,17.505,6.949,21.531l69.723,35.699
			c10.585,5.419,23.289-2.235,23.289-14.239v-55.564c0,0,0-0.001,0-0.002c0.116-1.826,1.66-3.231,3.489-3.173
			c1.829,0.059,3.278,1.559,3.28,3.389c0.001,25.339,0.007,128.243,0.007,269.989c0,10.603,8.595,19.197,19.197,19.197
			s19.197-8.595,19.197-19.197c0-164.024,0.096-153.256,0-154.72h8.353c-0.096,1.463-0.065-9.304-0.065,154.72
			c0,10.603,8.595,19.197,19.197,19.197c10.602,0,19.197-8.595,19.197-19.197V323.528
			C177.688,322.397,165.105,309.118,165.105,292.948z"/>
	</g>
</g>
<g>
	<g>
		<circle cx="375.931" cy="89.382" r="33.156"/>
	</g>
</g>
<g>
	<g>
		<path d="M306.751,133.882c-10.926,0-77.014,0-87.98,0c-21.611,0-39.279,17.31-39.386,38.67v120.396
			c0,9.051,7.337,16.388,16.388,16.388s16.388-7.337,16.388-16.388V172.634c0-0.001,0-0.001,0-0.002
			c0.011-1.913,1.568-3.457,3.48-3.451c1.913,0.006,3.46,1.558,3.46,3.471v275.469c0,10.861,8.805,19.665,19.665,19.665
			s19.665-8.805,19.665-19.665V290.932h8.49v157.189c0,10.861,8.805,19.665,19.665,19.665s19.665-8.805,19.665-19.665
			c0-73.659,0-199.26,0-275.561c0-1.794,1.453-3.248,3.247-3.252c1.794-0.002,3.252,1.449,3.256,3.243v120.396
			c0.001,9.052,7.337,16.389,16.388,16.389c9.051,0,16.388-7.337,16.388-16.388V172.47
			C345.424,151.193,328.028,133.882,306.751,133.882z"/>
	</g>
</g>
<g>
	<g>
		<path d="M262.9,55.126c-18.758,0-33.965,15.207-33.965,33.965c0,18.81,15.274,33.965,33.965,33.965
			c18.678,0,33.965-15.14,33.965-33.965C296.865,70.333,281.658,55.126,262.9,55.126z"/>
	</g>
</g>
<g>
	<g>
		<path d="M499.931,44.706c-8.562-2.174-17.268,3.008-19.441,11.572L461.8,129.932l-57.914,3.178c-12.227,0-49.714,0-61.845,0
			c11.247,10.049,17.695,24.31,17.771,39.286v0.037v0.036c0,12.508,0,108.506,0,120.478c0,15.542-11.624,28.412-26.632,30.394
			v116.53c0,10.603,8.595,19.197,19.197,19.197s19.197-8.595,19.197-19.197V286.424h8.289v153.448
			c0,10.603,8.595,19.197,19.197,19.197c10.603,0,19.197-8.595,19.197-19.197c0-235.11-0.653-275.47-0.653-275.47l57.687-3.165
			c6.984-0.383,12.91-5.26,14.629-12.04l21.58-85.05C513.675,55.583,508.495,46.88,499.931,44.706z"/>
	</g>
</g>
<g>
</g>
<g>
</g>
<g>
</g>
<g>
</g>
<g>
</g>
<g>
</g>
<g>
</g>
<g>
</g>
<g>
</g>
<g>
</g>
<g>
</g>
<g>
</g>
<g>
</g>
<g>
</g>
<g>
</g>
</svg>
