<?xml version="1.0" encoding="iso-8859-1"?>
<!-- Generator: Adobe Illustrator 19.0.0, SVG Export Plug-In . SVG Version: 6.00 Build 0)  -->
<svg version="1.1" id="Layer_1" xmlns="http://www.w3.org/2000/svg" xmlns:xlink="http://www.w3.org/1999/xlink" x="0px" y="0px"
	 viewBox="0 0 512 512" style="enable-background:new 0 0 512 512;" xml:space="preserve">
<g>
	<g>
		<path d="M409.022,50.529c-8.069-7.809-20.942-7.598-28.751,0.473l-45.2,46.712c-52.59-0.011-170.555-1.783-182.688,0.97
			c-17.087,3.526-31.236,16.397-35.983,33.693l-18.881,68.801c-3.464,12.621,5.747,25.192,18.821,25.699l41.569,1.609l0.01,259.114
			c0,13.476,10.924,24.4,24.4,24.4s24.4-10.924,24.4-24.4V292.571h10.535V487.6c0,13.476,10.924,24.4,24.4,24.4
			s24.178-10.924,24.178-24.4c0-93.034,0-256.172,0-349.22h77.859c5.509,0,10.782-2.235,14.612-6.193l51.193-52.905
			C417.304,71.211,417.092,58.338,409.022,50.529z M157.909,187.789l-14.394-0.556l11.876-39.189c0.185-0.611,0.789-0.994,1.42-0.9
			c0.631,0.094,1.098,0.635,1.098,1.273V187.789z M244.075,164.131c-1.827,9.735-7.414,18.08-15.332,23.445l-11.648,62.081
			c-2.612,13.923-15.992,23.089-29.853,20.574l-0.176-0.032l-0.081-0.016c-13.898-2.653-23.072-16.099-20.461-30.016l2.113-11.266
			l16.862,0.653l-2.569,13.692c-0.92,4.903,2.309,9.624,7.213,10.545c0.018,0.003,0.037,0.007,0.055,0.01
			c4.887,0.886,9.574-2.339,10.49-7.223l3.116-16.607c9.692-1.222,17.367-9.286,17.756-19.367
			c0.309-7.989-4.046-15.062-10.625-18.64l2.927-15.602c6.875-2.05,12.392-7.775,13.805-15.31
			c2.014-10.736-5.056-21.074-15.792-23.088c-10.732-2.014-21.072,5.05-23.088,15.792c-1.414,7.536,1.651,14.871,7.316,19.274
			l-3.025,16.121l-16.862-0.653l1.954-10.413c-5.434-7.87-7.617-17.671-5.79-27.408c3.694-19.677,22.657-32.856,42.574-29.12
			C234.72,125.267,247.783,144.365,244.075,164.131z"/>
	</g>
</g>
<g>
	<g>
		<path d="M212.26,0c-23.274,0-42.14,18.867-42.14,42.14c0,18.745,12.243,34.625,29.166,40.097
			c-2.023-3.107-3.238-6.964-3.238-11.16c0-10.244,7.155-18.548,15.981-18.548c8.826,0,15.981,8.304,15.981,18.548
			c0,4.28-1.262,8.211-3.361,11.35c17.226-5.292,29.751-21.325,29.751-40.286C254.4,18.867,235.534,0,212.26,0z"/>
	</g>
</g>
<g>
</g>
<g>
</g>
<g>
</g>
<g>
</g>
<g>
</g>
<g>
</g>
<g>
</g>
<g>
</g>
<g>
</g>
<g>
</g>
<g>
</g>
<g>
</g>
<g>
</g>
<g>
</g>
<g>
</g>
</svg>
