<?xml version="1.0" encoding="iso-8859-1"?>
<!-- Generator: Adobe Illustrator 19.0.0, SVG Export Plug-In . SVG Version: 6.00 Build 0)  -->
<svg version="1.1" id="Layer_1" xmlns="http://www.w3.org/2000/svg" xmlns:xlink="http://www.w3.org/1999/xlink" x="0px" y="0px"
	 viewBox="0 0 512.001 512.001" style="enable-background:new 0 0 512.001 512.001;" xml:space="preserve">
<g>
	<g>
		<circle cx="135.793" cy="101.972" r="37.977"/>
	</g>
</g>
<g>
	<g>
		<path d="M231.91,6.623c-9.289-0.983-17.611,5.75-18.594,15.037l-8.558,80.925l-41.857,54.412h-56.425L67.224,96.05l-6.023-73.983
			c-0.758-9.308-8.92-16.235-18.226-15.481c-9.307,0.758-16.239,8.918-15.481,18.225l6.368,78.205
			c0.225,2.771,1.131,5.445,2.636,7.784c51.378,79.776,47.707,74.68,50.572,77.042v123.835l-41.98,173.152
			c-2.862,11.801,4.386,23.687,16.187,26.549c11.81,2.863,23.69-4.394,26.548-16.187c46.052-189.944,43.206-176.982,43.208-180.924
			h9.513v175.744c0,12.143,9.844,21.987,21.987,21.987s21.987-9.844,21.987-21.987c0-288.995-0.399-128.443-0.399-305.128
			l50.353-65.458c1.903-2.474,3.085-5.427,3.413-8.531l9.06-85.673C247.93,15.93,241.197,7.606,231.91,6.623z"/>
	</g>
</g>
<g>
	<g>
		<circle cx="373.313" cy="96.557" r="37.977"/>
	</g>
</g>
<g>
	<g>
		<path d="M469.431,0.095c-9.279-0.983-17.611,5.75-18.594,15.037l-8.558,80.925l-41.86,54.417H344l-39.256-60.954l-6.022-73.983
			c-0.758-9.308-8.929-16.235-18.226-15.481c-9.307,0.758-16.239,8.918-15.481,18.225l6.368,78.205
			c0.225,2.771,1.131,5.445,2.637,7.784c51.361,79.752,47.7,74.675,50.572,77.042c0,0,0.009,297.668,0.009,308.701
			c0,12.143,9.844,21.987,21.987,21.987c12.142,0,21.987-9.844,21.987-21.987V307.741h9.493v182.272
			c0,12.143,9.844,21.987,21.987,21.987s21.987-9.844,21.987-21.987c0-307.67-0.399-122.008-0.399-311.662l50.355-65.458
			c1.903-2.475,3.084-5.427,3.413-8.531l9.06-85.673C485.451,9.402,478.718,1.077,469.431,0.095z"/>
	</g>
</g>
<g>
</g>
<g>
</g>
<g>
</g>
<g>
</g>
<g>
</g>
<g>
</g>
<g>
</g>
<g>
</g>
<g>
</g>
<g>
</g>
<g>
</g>
<g>
</g>
<g>
</g>
<g>
</g>
<g>
</g>
</svg>
