<?xml version="1.0" encoding="iso-8859-1"?>
<!-- Generator: Adobe Illustrator 19.0.0, SVG Export Plug-In . SVG Version: 6.00 Build 0)  -->
<svg version="1.1" id="Layer_1" xmlns="http://www.w3.org/2000/svg" xmlns:xlink="http://www.w3.org/1999/xlink" x="0px" y="0px"
	 viewBox="0 0 512 512" style="enable-background:new 0 0 512 512;" xml:space="preserve">
<g>
	<g>
		<circle cx="280.8" cy="79.787" r="38.748"/>
	</g>
</g>
<g>
	<g>
		<path d="M344.458,70.958c0.032-11.923-3.38-23.61-10.033-33.837c-9.027-13.877-22.918-23.408-39.115-26.836
			c-16.193-3.429-32.757-0.346-46.634,8.68c-10.306,6.704-18.208,16.095-23,27.116c-6.813,2.63-12.658,9.893-14.65,19.302
			c-2.795,13.2,3.046,25.615,13.044,27.731c2.574,0.545,5.172,0.35,7.659-0.46l7.414-35.012c3.098-10.172,9.598-18.85,18.615-24.717
			c10.149-6.601,22.26-8.855,34.102-6.348c11.844,2.507,22.001,9.478,28.603,19.625c6.602,10.147,8.857,22.259,6.349,34.102
			l-6.368,31.133c1.946,1.748,4.241,2.979,6.815,3.524c9.998,2.116,20.37-6.866,23.165-20.065
			C352.466,85.257,349.887,76.054,344.458,70.958z"/>
	</g>
</g>
<g>
	<g>
		<path d="M106.92,271.868H13.765c-7.257,0-13.14,5.883-13.14,13.14v226.665h119.435V285.008
			C120.06,277.751,114.177,271.868,106.92,271.868z M60.342,463.847c-15.177,0-27.48-12.303-27.48-27.48s12.303-27.481,27.48-27.481
			s27.481,12.304,27.481,27.481S75.519,463.847,60.342,463.847z M60.342,378.907c-21.922,0-39.694-17.772-39.694-39.694
			c0-21.922,17.772-39.694,39.694-39.694c21.922,0,39.694,17.772,39.694,39.694C100.036,361.135,82.266,378.907,60.342,378.907z"/>
	</g>
</g>
<g>
	<g>
		<path d="M498.234,272.196h-93.155c-7.257,0-13.14,5.883-13.14,13.14V512h119.435V285.335
			C511.374,278.078,505.491,272.196,498.234,272.196z M451.657,461.071c-15.177,0-27.481-12.303-27.481-27.48
			s12.303-27.481,27.481-27.481c15.177,0,27.48,12.304,27.48,27.481S466.834,461.071,451.657,461.071z M451.657,376.131
			c-21.922,0-39.694-17.772-39.694-39.694c0-21.922,17.772-39.694,39.694-39.694c21.922,0,39.694,17.772,39.694,39.694
			C491.351,358.359,473.579,376.131,451.657,376.131z"/>
	</g>
</g>
<g>
	<g>
		<circle cx="60.346" cy="339.215" r="14.712"/>
	</g>
</g>
<g>
	<g>
		<circle cx="60.346" cy="436.368" r="10.185"/>
	</g>
</g>
<g>
	<g>
		<circle cx="451.657" cy="336.439" r="14.712"/>
	</g>
</g>
<g>
	<g>
		<circle cx="451.657" cy="433.592" r="10.185"/>
	</g>
</g>
<g>
	<g>
		<path d="M373.607,187.223c-17.881-14.696-38.406-31.467-48.647-39.826c-4.323-3.529-9.354-5.924-14.813-7.079
			c-20.953-4.437-74.834-15.845-81.283-17.211l-62.664-21.144l-9.693-86.624c-1.06-9.471-9.6-16.296-19.066-15.228
			c-9.469,1.059-16.287,9.595-15.228,19.065l10.916,97.542c0.746,6.661,5.281,12.287,11.632,14.43l69.782,23.546l-18.265,86.26
			c0.532,0.207,1.057,0.427,1.566,0.676c2.712-1.324,5.759-2.066,8.975-2.066c19.948,0,19.256-0.068,21.154,0.195
			c3.63-3.229,8.407-5.192,13.636-5.192h40.019l21.572-20.527l7.235-34.17l26.27,21.656c-9.158,8.8-31.67,30.435-38.768,37.257
			c-3.524,3.386-5.285,7.91-5.285,12.44h-51.044c-2.146,0-3.886,1.74-3.886,3.886v16.926h-8.697v-11.929
			c0-2.146-1.74-3.886-3.886-3.886h-18.32c-2.146,0-3.886,1.74-3.886,3.886v11.929h-10.178v-11.929c0-2.146-1.74-3.886-3.886-3.886
			h-18.32c-2.146,0-3.886,1.74-3.886,3.886v11.945c-7.119,0.159-12.845,5.968-12.845,13.125v226.662h204.371V285.172
			c0-7.257-5.884-13.14-13.14-13.14h-6.286v-16.926c0-2.146-1.74-3.886-3.886-3.886h-0.082
			c18.165-17.457,22.09-21.228,39.795-38.244C382.021,205.833,381.568,193.787,373.607,187.223z"/>
	</g>
</g>
<g>
</g>
<g>
</g>
<g>
</g>
<g>
</g>
<g>
</g>
<g>
</g>
<g>
</g>
<g>
</g>
<g>
</g>
<g>
</g>
<g>
</g>
<g>
</g>
<g>
</g>
<g>
</g>
<g>
</g>
</svg>
