<?xml version="1.0" encoding="iso-8859-1"?>
<!-- Generator: Adobe Illustrator 19.0.0, SVG Export Plug-In . SVG Version: 6.00 Build 0)  -->
<svg version="1.1" id="Layer_1" xmlns="http://www.w3.org/2000/svg" xmlns:xlink="http://www.w3.org/1999/xlink" x="0px" y="0px"
	 viewBox="0 0 512 512" style="enable-background:new 0 0 512 512;" xml:space="preserve">
<g>
	<g>
		<path d="M496.907,25.722c-9.843-1.633-19.143,5.007-20.783,14.845l-12.408,74.456l-46.834,10.953c-45.04,0-54.224,0-95.062,0
			c-20.621,0-37.237,15.23-42.328,38.799c-1.322,6.114-2.981,14.03-4.531,21.499l-46.818-23.803
			c-8.888-4.52-19.763-0.978-24.284,7.913s-0.977,19.763,7.913,24.284l67.922,34.534c10.617,5.398,23.5-0.795,25.882-12.496
			c0.057-0.284,5.716-28.501,9.22-44.3c0.424-1.913,2.221-3.2,4.169-2.985c1.948,0.214,3.419,1.861,3.419,3.821
			c0,45.399,0,206.305,0,291.612c0,11.969,9.703,21.671,21.671,21.671s21.671-9.702,21.671-21.671V299.046h9.341V464.85
			c0,11.969,9.703,21.671,21.671,21.671s21.671-9.702,21.671-21.671V162.095c0,0,36.356-7.935,65.252-14.644
			c7.099-1.66,12.503-7.425,13.702-14.616l14.388-86.33C513.392,36.667,506.745,27.362,496.907,25.722z"/>
	</g>
</g>
<g>
	<g>
		<circle cx="370.391" cy="76.614" r="37.429"/>
	</g>
</g>
<g>
	<g>
		<path d="M217.576,25.722c-9.843-1.633-19.143,5.007-20.783,14.845l-12.408,74.456l-46.833,10.953H45.08
			c-24.897,0-45.08,20.183-45.08,45.08v121.432c0,9.724,7.474,18.092,17.187,18.549c10.371,0.488,18.932-7.776,18.932-18.039
			V171.056v-0.002c0-1.311,0.697-2.584,1.894-3.119c2.559-1.144,5.04,0.698,5.04,3.119v293.276c0,11.75,9.137,21.758,20.88,22.177
			c12.329,0.439,22.463-9.425,22.463-21.658V299.046h9.34v165.285c0,11.75,9.137,21.758,20.879,22.177
			c12.329,0.439,22.463-9.425,22.463-21.658l0.009-302.756c0.001,0.001,36.677-8.01,65.244-14.642
			c7.099-1.66,12.503-7.425,13.702-14.616l14.388-86.33C234.061,36.666,227.415,27.362,217.576,25.722z"/>
	</g>
</g>
<g>
	<g>
		<circle cx="91.068" cy="76.614" r="37.429"/>
	</g>
</g>
<g>
</g>
<g>
</g>
<g>
</g>
<g>
</g>
<g>
</g>
<g>
</g>
<g>
</g>
<g>
</g>
<g>
</g>
<g>
</g>
<g>
</g>
<g>
</g>
<g>
</g>
<g>
</g>
<g>
</g>
</svg>
