<?xml version="1.0" encoding="iso-8859-1"?>
<!-- Generator: Adobe Illustrator 19.0.0, SVG Export Plug-In . SVG Version: 6.00 Build 0)  -->
<svg version="1.1" id="Layer_1" xmlns="http://www.w3.org/2000/svg" xmlns:xlink="http://www.w3.org/1999/xlink" x="0px" y="0px"
	 viewBox="0 0 511.999 511.999" style="enable-background:new 0 0 511.999 511.999;" xml:space="preserve">
<g>
	<g>
		<path d="M339.751,0c-4.378,0-7.927,3.549-7.927,7.927v54.05c-2.046-0.465-4.227-0.717-6.502-0.717
			c-12.223,0-21.799,7.208-21.799,16.411s9.576,16.41,21.799,16.41c10.587,0,19.885-5.411,21.999-12.837c0,0,0-73.293,0-73.317
			C347.321,3.549,344.128,0,339.751,0z"/>
	</g>
</g>
<g>
	<g>
		<path d="M506.005,236.316c0-5.287-5.194-9.048-10.233-7.358l-55.856,18.764c-3.16,1.062-5.29,4.023-5.29,7.358v52.924
			c-2.003-0.456-4.14-0.702-6.368-0.702c-11.968,0-21.344,7.058-21.344,16.069c0,9.011,9.376,16.07,21.344,16.07
			c10.365,0,18.774-5.298,20.845-12.569c1.447-2.5,1.045,1.709,1.045-66.211l40.333-13.549v42.128
			c-2.003-0.455-4.14-0.702-6.367-0.702c-11.969,0-21.345,7.058-21.345,16.07s9.376,16.07,21.345,16.07
			c10.365,0,18.774-5.298,20.845-12.569C506.433,305.561,506.005,310.272,506.005,236.316z"/>
	</g>
</g>
<g>
	<g>
		<path d="M359.478,225.291l11.084-6.65c10.106-6.065,13.383-19.173,7.318-29.279c-4.483-7.472-12.819-11.196-20.945-10.185
			c1.438-5.142,1.409-10.754-0.406-16.201c-4.837-14.532-20.539-22.389-35.071-17.552c-14.532,4.837-22.389,20.539-17.552,35.071
			c2.905,8.726,9.73,15.041,17.865,17.651l-31.315,18.791l-122.421-61.461l-63.087-56.942L66.752,14.807
			C61.86,4.084,49.205-0.643,38.48,4.248C27.758,9.14,23.03,21.799,27.922,32.521l40.036,87.758
			c1.213,2.659,2.959,5.042,5.132,6.998l56.053,50.491c-2.926,6.322-38.71,83.664-54.373,117.519
			c-4.557,9.85-5.444,21.009-2.485,31.45c4.912,17.333,12.747,45.09,18.301,65.314l-77.041,76.124
			c-10.06,9.94-10.157,26.155-0.217,36.215c9.946,10.066,26.161,10.152,36.216,0.217l87.692-86.649
			c6.58-6.502,9.142-16.046,6.703-24.97l-12.723-46.534c2.684,1.527-2.98-0.675,77.48,28.43l-17.666,107.344
			c-2.558,15.546,9.418,29.77,25.299,29.77c12.314,0,23.173-8.906,25.238-21.454l21.122-128.341
			c2.003-12.173-4.958-24.043-16.558-28.239l-55.429-20.052l38.205-82.573l51.469,28.88c6.64,3.727,14.818,3.65,21.422-0.313
			l38.627-23.18l13.265,39.847c1.891,5.682,8.03,8.757,13.716,6.864c5.682-1.891,8.755-8.032,6.864-13.715L359.478,225.291z"/>
	</g>
</g>
<g>
	<g>
		<circle cx="243.682" cy="108.214" r="44.228"/>
	</g>
</g>
<g>
	<g>
		<path d="M455.563,52.225c-2.22-4.571-7.725-6.477-12.298-4.259L369.98,83.549c-4.572,2.22-6.478,7.726-4.259,12.298
			c2.219,4.569,7.72,6.481,12.298,4.259l73.284-35.583C455.876,62.303,457.782,56.798,455.563,52.225z"/>
	</g>
</g>
<g>
	<g>
		<path d="M458.382,173.605l-73.283-35.583c-4.57-2.218-10.078-0.313-12.298,4.259c-2.219,4.572-0.313,10.078,4.259,12.298
			l73.283,35.583c4.579,2.222,10.08,0.307,12.298-4.259C464.86,181.33,462.954,175.825,458.382,173.605z"/>
	</g>
</g>
<g>
	<g>
		<path d="M470.986,107.358h-75.459c-5.082,0-9.202,4.121-9.202,9.203c0,5.082,4.121,9.203,9.202,9.203h75.459
			c5.082,0,9.202-4.121,9.202-9.203C480.188,111.479,476.067,107.358,470.986,107.358z"/>
	</g>
</g>
<g>
</g>
<g>
</g>
<g>
</g>
<g>
</g>
<g>
</g>
<g>
</g>
<g>
</g>
<g>
</g>
<g>
</g>
<g>
</g>
<g>
</g>
<g>
</g>
<g>
</g>
<g>
</g>
<g>
</g>
</svg>
