<?xml version="1.0" encoding="iso-8859-1"?>
<!-- Generator: Adobe Illustrator 19.0.0, SVG Export Plug-In . SVG Version: 6.00 Build 0)  -->
<svg version="1.1" id="Layer_1" xmlns="http://www.w3.org/2000/svg" xmlns:xlink="http://www.w3.org/1999/xlink" x="0px" y="0px"
	 viewBox="0 0 511.999 511.999" style="enable-background:new 0 0 511.999 511.999;" xml:space="preserve">
<g>
	<g>
		<path d="M404.068,9.046c-4.368,0-7.911,3.542-7.911,7.911v53.94c-2.042-0.464-4.219-0.715-6.488-0.715
			c-12.198,0-21.755,7.194-21.755,16.377s9.556,16.377,21.755,16.377c10.565,0,19.845-5.4,21.954-12.812c0,0,0-73.144,0-73.167
			C411.623,12.588,408.436,9.046,404.068,9.046z"/>
	</g>
</g>
<g>
	<g>
		<path d="M463.061,146.521c0-5.276-5.183-9.03-10.212-7.343l-55.742,18.726c-3.154,1.06-5.279,4.015-5.279,7.343v52.817
			c-1.999-0.455-4.131-0.701-6.355-0.701c-11.944,0-21.301,7.044-21.301,16.036c0,8.992,9.357,16.036,21.301,16.036
			c10.344,0,18.736-5.287,20.802-12.543c1.444-2.495,1.043,1.706,1.043-66.076l40.251-13.521v42.042
			c-1.999-0.455-4.131-0.701-6.354-0.701c-11.945,0-21.302,7.044-21.302,16.036s9.357,16.036,21.302,16.036
			c10.344,0,18.736-5.287,20.802-12.543C463.488,215.625,463.061,220.326,463.061,146.521z"/>
	</g>
</g>
<g>
	<g>
		<path d="M342.846,102.377c-7.079-6.13-17.786-5.362-23.918,1.716l-38.152,44.051l-46.514-22.228
			c-3.383-1.617-7.046-2.561-10.789-2.782l-92.998-5.49L83.341,86.532l4.049-68.577C87.942,8.608,80.81,0.582,71.461,0.03
			c-9.356-0.548-17.374,6.579-17.926,15.928L48.91,94.296c-0.357,6.042,2.535,11.817,7.586,15.15l70.277,46.388l-8.294,140.491
			l0.347,193.002c-0.035,12.486,10.059,22.636,22.546,22.671c0.022,0,0.042,0,0.064,0c12.456,0,22.573-10.081,22.607-22.546
			l0.531-190.407l9.008,0.532l36.462,93.139l-11.164,94.006c-1.473,12.399,7.385,23.643,19.785,25.116
			c12.392,1.473,23.643-7.382,25.116-19.785l11.832-99.636c0.438-3.695-0.041-7.442-1.398-10.908l-35.026-89.47l7.783-131.829
			l50.945,24.092c6.888,3.258,15.089,1.519,20.066-4.227l46.58-53.781C350.693,119.217,349.925,108.509,342.846,102.377z"/>
	</g>
</g>
<g>
	<g>
		<circle cx="182.271" cy="66.514" r="39.237"/>
	</g>
</g>
<g>
</g>
<g>
</g>
<g>
</g>
<g>
</g>
<g>
</g>
<g>
</g>
<g>
</g>
<g>
</g>
<g>
</g>
<g>
</g>
<g>
</g>
<g>
</g>
<g>
</g>
<g>
</g>
<g>
</g>
</svg>
