<?xml version="1.0" encoding="iso-8859-1"?>
<!-- Generator: Adobe Illustrator 19.0.0, SVG Export Plug-In . SVG Version: 6.00 Build 0)  -->
<svg version="1.1" id="Layer_1" xmlns="http://www.w3.org/2000/svg" xmlns:xlink="http://www.w3.org/1999/xlink" x="0px" y="0px"
	 viewBox="0 0 512.001 512.001" style="enable-background:new 0 0 512.001 512.001;" xml:space="preserve">
<g>
	<g>
		<path d="M433.992,487.235l-35.429-19.497V202.443l17.111,17.091c4.123,4.12,10.809,4.12,14.933-0.008
			c4.121-4.127,4.118-10.812-0.008-14.934l-59.091-59.025c2.552-7.985,0.676-17.077-5.663-23.409
			c-9.033-9.023-23.672-9.015-32.695,0.018c-9.023,9.033-9.015,23.672,0.018,32.695c6.339,6.332,15.433,8.199,23.416,5.638
			l15.709,15.817c-0.38,1.932,0-15.86,0,291.412l-35.555,19.497c-6.387,3.514-8.715,11.541-5.201,17.926
			c3.514,6.387,11.541,8.715,17.926,5.201l35.902-19.757l35.902,19.757c6.385,3.516,14.413,1.185,17.926-5.201
			C442.705,498.777,440.377,490.75,433.992,487.235z"/>
	</g>
</g>
<g>
	<g>
		<path d="M250.513,199.806l-39.206,8.747c0.058,11.526,6.497,18.716,14.927,21.045c8.781,2.424,18.1-1.286,22.812-9.076
			l17.029-28.154C261.66,195.891,256.397,198.492,250.513,199.806z"/>
	</g>
</g>
<g>
	<g>
		<path d="M289.332,114.631c-9.61-5.813-22.111-2.734-27.921,6.874l-3.512,5.807c10.65,4.799,18.987,14.38,21.727,26.657
			c1.184,5.304,1.201,10.596,0.233,15.612l16.349-27.029C302.018,132.945,298.94,120.444,289.332,114.631z"/>
	</g>
</g>
<g>
	<g>
		<circle cx="149.126" cy="42.14" r="42.14"/>
	</g>
</g>
<g>
	<g>
		<path d="M202.481,210.522c-16.917,3.775-41.036,9.157-57.257,12.776c-12.855,2.868-25.619-3.69-31.094-15.068l-19.35-40.187
			c0,0,0.009,295.121,0.009,319.559c0,13.476,10.924,24.4,24.4,24.4c13.476,0,24.4-10.924,24.4-24.4v-195.03h10.535V487.6
			c0,13.476,10.924,24.4,24.4,24.4s24.4-10.924,24.4-24.4C202.924,476.248,202.481,221.867,202.481,210.522z"/>
	</g>
</g>
<g>
	<g>
		<path d="M261.997,157.903c-2.445-10.961-13.316-17.864-24.273-15.417l-85.697,19.122l-34.811-43.42
			c0,0,27.371,18.769,35.084,24.854c7.479-1.668,72.22-16.115,81.492-18.183c4.288-0.957,8.567-1.145,12.7-0.676
			c-7.95-15.682-24.241-26.47-42.951-26.47c-117.604,0-109.446-0.276-113.08,0.643c-16.559,0.874-25.13,20.126-14.801,33.009
			c10.848,13.53,41.71,52.026,52.564,65.564c4.864,6.069,12.741,8.813,20.292,7.128l98.065-21.881
			C257.54,179.731,264.443,168.864,261.997,157.903z"/>
	</g>
</g>
<g>
	<g>
		<path d="M324.289,91.024c-4.519-10.296-12.776-18.216-23.251-22.3c-10.474-4.084-21.913-3.846-32.208,0.672
			c-4.221,1.853-6.141,6.776-4.289,10.997c1.852,4.221,6.777,6.141,10.997,4.289c12.824-5.629,27.836,0.225,33.464,13.05
			c1.852,4.22,6.774,6.142,10.997,4.289C324.221,100.168,326.141,95.245,324.289,91.024z"/>
	</g>
</g>
<g>
	<g>
		<path d="M356.335,80.15c-8.432-19.213-23.842-33.992-43.39-41.615c-19.548-7.624-40.895-7.177-60.108,1.255
			c-4.221,1.853-6.141,6.776-4.289,10.997c1.853,4.222,6.775,6.14,10.998,4.289c15.13-6.641,31.94-6.991,47.334-0.989
			c15.394,6.003,27.528,17.641,34.169,32.771c1.852,4.22,6.774,6.142,10.997,4.289C356.267,89.294,358.187,84.371,356.335,80.15z"/>
	</g>
</g>
<g>
</g>
<g>
</g>
<g>
</g>
<g>
</g>
<g>
</g>
<g>
</g>
<g>
</g>
<g>
</g>
<g>
</g>
<g>
</g>
<g>
</g>
<g>
</g>
<g>
</g>
<g>
</g>
<g>
</g>
</svg>
