<?xml version="1.0" encoding="iso-8859-1"?>
<!-- Generator: Adobe Illustrator 19.0.0, SVG Export Plug-In . SVG Version: 6.00 Build 0)  -->
<svg version="1.1" id="Layer_1" xmlns="http://www.w3.org/2000/svg" xmlns:xlink="http://www.w3.org/1999/xlink" x="0px" y="0px"
	 viewBox="0 0 511.999 511.999" style="enable-background:new 0 0 511.999 511.999;" xml:space="preserve">
<g>
	<g>
		<circle cx="240.973" cy="85.086" r="40.579"/>
	</g>
</g>
<g>
	<g>
		<path d="M222.693,376.425c-7.11,11.42-20.724,16.31-33.205,12.618c-6.308-1.866-11.622-5.75-15.328-10.812l-28.108,104.146
			c-3.381,12.527,4.034,25.424,16.562,28.805c12.526,3.38,25.424-4.035,28.805-16.563l32.376-119.964L222.693,376.425z"/>
	</g>
</g>
<g>
	<g>
		<path d="M293.637,138.603c-25.334,0-56.841,0-82.163,0L110.669,7.637C104.072-0.93,91.779-2.531,83.211,4.064
			c-8.569,6.595-10.168,18.889-3.572,27.458C194.249,180.426,186.749,170.978,188.91,172.878v48.468l79.621-16.047
			c9.01-6.249,52.292-36.263,61.942-42.955C323.777,151.163,313.145,138.603,293.637,138.603z"/>
	</g>
</g>
<g>
	<g>
		<path d="M382.642,478.797l-90.025-198.563v-16.081l-38.664,62.083h7.926L339.844,498.2c5.361,11.823,19.285,17.053,31.101,11.698
			C382.763,504.539,388,490.615,382.642,478.797z"/>
	</g>
</g>
<g>
	<g>
		<path d="M435.483,189.635c-1.875-5.843-6.241-10.189-11.546-12.256l-26.247,18.202c-4.23,2.933-9.183,4.483-14.323,4.483
			c-1.545,0-3.074-0.143-4.57-0.42l-50.418,34.964c5.089,4.454,12.217,6.053,18.877,3.916l75.568-24.26
			C433.122,210.957,438.788,199.932,435.483,189.635z"/>
	</g>
</g>
<g>
	<g>
		<path d="M429.599,142.838c-0.113,0-0.226,0.004-0.34,0.014l-67.366,5.526c-2.57,0.211-3.945,3.131-2.478,5.246l4.721,6.807
			l-88.559,61.413l-164.139,33.081c-4.048,0.816-7.178,4.036-7.878,8.106c-0.7,4.07,1.173,8.151,4.717,10.272l54.481,32.63
			c14.886,8.916,23.871,25.11,23.558,42.461l-0.222,12.318c-0.095,5.266,3.337,9.947,8.388,11.441
			c5.06,1.495,10.482-0.576,13.261-5.039l77.048-123.714l92.436-64.102c1.47,2.052,3.785,3.152,6.139,3.152
			c1.481,0,2.977-0.436,4.288-1.344l44.304-30.723C435.29,148.075,433.637,142.838,429.599,142.838z M215.462,326.953
			c-1.536,5.005-6.838,7.824-11.853,6.288c-5.009-1.537-7.824-6.843-6.288-11.851c1.535-5.004,6.837-7.824,11.853-6.288
			C214.183,316.637,216.998,321.943,215.462,326.953z M223.385,306.589c-3.972,2.755-9.43,1.772-12.19-2.206l-22.814-32.897
			c-2.758-3.978-1.768-9.436,2.206-12.191c3.975-2.757,9.432-1.769,12.19,2.206l22.814,32.898
			C228.348,298.374,227.361,303.832,223.385,306.589z"/>
	</g>
</g>
<g>
</g>
<g>
</g>
<g>
</g>
<g>
</g>
<g>
</g>
<g>
</g>
<g>
</g>
<g>
</g>
<g>
</g>
<g>
</g>
<g>
</g>
<g>
</g>
<g>
</g>
<g>
</g>
<g>
</g>
</svg>
