<?xml version="1.0" encoding="iso-8859-1"?>
<!-- Generator: Adobe Illustrator 19.0.0, SVG Export Plug-In . SVG Version: 6.00 Build 0)  -->
<svg version="1.1" id="Layer_1" xmlns="http://www.w3.org/2000/svg" xmlns:xlink="http://www.w3.org/1999/xlink" x="0px" y="0px"
	 viewBox="0 0 511.999 511.999" style="enable-background:new 0 0 511.999 511.999;" xml:space="preserve">
<g>
	<g>
		<circle cx="256.126" cy="74.299" r="40.554"/>
	</g>
</g>
<g>
	<g>
		<path d="M272.475,450.665c-4.826,0.001-9.356-1.278-13.283-3.505v42.319c0,12.437,10.082,22.52,22.52,22.52
			c12.438,0,22.519-10.083,22.519-22.52v-38.814H272.475z"/>
	</g>
</g>
<g>
	<g>
		<path d="M389.797,336.74h-19.671v-23.983c0-6.059-4.928-10.931-10.931-10.931h-9.341v-128
			c-0.12-24.366-20.686-44.048-45.052-44.048c-55.241,0-95.099,0-95.099,0l-45.393-6.841l22.801-30.35
			c3.514,4.724,8.405,7.658,13.818,7.658c2.753,0,5.37-0.763,7.742-2.13V60.724c2.103-24.221,22.48-43.294,47.239-43.294
			c26.153,0,47.43,21.278,47.43,47.43v9.823h0.23v23.433c2.372,1.367,4.989,2.13,7.742,2.13c10.696,0,19.366-11.445,19.366-25.563
			c0-10.324-4.639-19.213-11.314-23.248C313.161,22.092,287.069,0,255.907,0c-31.27,0-57.442,22.245-63.525,51.741
			c-0.928,0.604-1.813,1.305-2.65,2.089c-7.67-3.907-17.261-1.88-22.608,5.238L115.636,127.6
			c-3.961,5.274-4.733,12.287-2.011,18.296s8.502,10.055,15.08,10.554l75.726,11.364v321.665c0,12.437,10.082,22.52,22.52,22.52
			s22.52-10.083,22.52-22.52v-180h9.723v13.939c3.925-2.227,8.456-3.506,13.283-3.506h2.845v-7.154
			c0-15.118,12.149-27.443,27.197-27.745V173.926c0-6.356,9.856-6.356,9.856,0l-0.053,127.9h-9.241
			c-6.006,0-10.931,4.871-10.931,10.931v23.983h-19.671c-5.625,0-10.185,4.56-10.185,10.185v76.728
			c0,5.625,4.56,10.185,10.185,10.185h117.32c5.625,0,10.185-4.56,10.185-10.185v-76.728
			C399.982,341.3,395.422,336.74,389.797,336.74z M314.01,323.689h2.621c3.443,4.191,8.662,6.865,14.502,6.865
			c0.031,0,0.065,0,0.096-0.001c5.811-0.029,10.991-2.698,14.412-6.863h2.621v13.051H314.01V323.689z M301.163,407.776
			c-12.42,0-22.492-10.072-22.492-22.486c0-12.566,10.254-22.487,22.492-22.487c12.53,0,22.486,10.246,22.486,22.487
			C323.649,397.704,313.582,407.776,301.163,407.776z M360.721,407.776c-12.42,0-22.492-10.072-22.492-22.486
			c0-12.194,9.918-22.487,22.492-22.487c12.187,0,22.487,9.904,22.487,22.487C383.208,397.704,373.141,407.776,360.721,407.776z"/>
	</g>
</g>
<g>
</g>
<g>
</g>
<g>
</g>
<g>
</g>
<g>
</g>
<g>
</g>
<g>
</g>
<g>
</g>
<g>
</g>
<g>
</g>
<g>
</g>
<g>
</g>
<g>
</g>
<g>
</g>
<g>
</g>
</svg>
