<?xml version="1.0" encoding="iso-8859-1"?>
<!-- Generator: Adobe Illustrator 19.0.0, SVG Export Plug-In . SVG Version: 6.00 Build 0)  -->
<svg version="1.1" id="Layer_1" xmlns="http://www.w3.org/2000/svg" xmlns:xlink="http://www.w3.org/1999/xlink" x="0px" y="0px"
	 viewBox="0 0 511.999 511.999" style="enable-background:new 0 0 511.999 511.999;" xml:space="preserve">
<g>
	<g>
		<path d="M229.794,207.749c-5.17-8.297-16.088-10.829-24.385-5.658l-25.786,16.075c-0.097-19.319-0.069-13.732-0.158-31.364
			c-0.116-22.982-18.907-41.68-41.89-41.68H42.543C19.2,145.123,0.115,163.82,0,186.892v130.047c0,9.777,7.925,17.701,17.701,17.701
			c9.672,0,17.701-7.866,17.701-17.701V186.981c0-0.001,0-0.002,0-0.002c0.011-2.064,1.691-3.73,3.755-3.724
			c2.064,0.007,3.733,1.681,3.733,3.745c0.001,38.663,0.006,227.031,0.007,297.564c0,11.688,9.475,21.165,21.164,21.165h0.002
			c11.774,0,21.319-9.544,21.319-21.319V314.762h9.172v169.788c0,11.64,9.507,21.243,21.243,21.243
			c11.733,0,21.242-9.512,21.242-21.243c0-157.16,0.01-147.137,0-297.876c0-2.047,1.274-3.708,3.321-3.709
			c2.047-0.001,3.809,1.658,3.81,3.705c0,0.102,0.004,0.206,0,0.311c-0.531,11.415-0.067,49.737,0,63.068
			c0.07,13.914,15.604,22.207,27.274,14.933l52.692-32.846C232.433,226.964,234.965,216.046,229.794,207.749z"/>
	</g>
</g>
<g>
	<g>
		<circle cx="90.213" cy="96.746" r="36.687"/>
	</g>
</g>
<g>
	<g>
		<circle cx="377.125" cy="117.093" r="32.39"/>
	</g>
</g>
<g>
	<g>
		<path d="M506.485,282.143h-9.389c0-7.888-0.135-211.986-0.169-263.976c-0.004-6.606-5.36-11.961-11.968-11.961H267.572
			c-3.178,0-6.224,1.263-8.469,3.512c-2.245,2.248-3.504,5.297-3.499,8.475c0.076,51.689,0.368,253.396,0.368,263.95h-8.476
			c-3.046,0-5.515,2.469-5.515,5.515v17.866c0,3.046,2.469,5.515,5.515,5.515h23.124c0,6.167,0,128.624,0,156.862
			c0,3.045,2.469,5.515,5.514,5.515h12.796v5.25c0,3.046,2.469,5.515,5.515,5.515h14.541c3.046,0,5.515-2.47,5.515-5.515v-5.25
			h125.043v5.25c0,3.046,2.469,5.515,5.515,5.515h14.541c3.046,0,5.515-2.47,5.515-5.515v-5.25h12.796
			c3.046,0,5.514-2.469,5.514-5.515c0-28.235,0-150.691,0-156.862h23.059c3.046,0,5.515-2.47,5.515-5.515v-17.866
			C512,284.612,509.531,282.143,506.485,282.143z M413.326,22.017H429.1c1.204,0,1.716,1.315,1.716,2.519
			c0,1.387-0.621,2.593-1.716,2.593h-5.039v19.825c0,1.169-1.424,1.753-2.847,1.753c-1.424,0-2.847-0.584-2.847-1.753V27.129h-5.039
			c-1.095,0-1.716-1.205-1.716-2.593C411.611,23.331,412.122,22.017,413.326,22.017z M393.611,23.77
			c0-1.168,1.241-1.753,2.482-1.753h12.997c1.204,0,1.716,1.278,1.716,2.447c0,1.35-0.621,2.519-1.716,2.519h-9.785v6.171h5.476
			c1.095,0,1.716,1.058,1.716,2.227c0,0.985-0.511,2.154-1.716,2.154h-5.476v6.206h9.785c1.095,0,1.716,1.168,1.716,2.519
			c0,1.168-0.512,2.446-1.716,2.446h-12.997c-1.241,0-2.482-0.584-2.482-1.753V23.77z M375.792,22.016
			c1.424,0,2.848,0.511,2.848,1.716v8.763l6.827-9.676c0.402-0.583,0.913-0.804,1.497-0.804c1.46,0,3.359,1.497,3.359,2.922
			c0,0.292-0.073,0.693-0.365,1.095l-5.987,7.52l7.558,11.574c0.183,0.292,0.292,0.621,0.292,0.949c0,1.424-1.789,2.848-3.432,2.848
			c-0.767,0-1.496-0.293-1.971-1.06l-6.243-9.492l-1.534,1.972v6.608c0,1.169-1.424,1.753-2.848,1.753
			c-1.424,0-2.847-0.584-2.847-1.753V23.732h-0.001C372.945,22.528,374.368,22.016,375.792,22.016z M352.133,30.633
			c0-6.28,3.979-8.616,8.763-8.616c5.221,0,9.164,2.629,9.164,7.266c0,2.19-0.913,2.701-2.847,2.701
			c-1.534,0-2.775-0.402-2.848-1.716c-0.037-0.949-0.146-3.286-3.249-3.286c-2.081,0-3.286,1.169-3.286,3.652v9.676
			c0,2.482,1.205,3.651,3.322,3.651c2.921,0,3.103-2.226,3.212-3.651c0.11-1.35,1.351-1.716,2.812-1.716
			c1.971,0,2.884,0.511,2.884,2.701c0,4.855-3.942,7.63-9.164,7.63c-4.783,0-8.763-2.336-8.763-8.616V30.633z M342.785,23.732
			c0-1.204,1.424-1.716,2.847-1.716s2.848,0.511,2.848,1.716v23.221c0,1.169-1.424,1.753-2.848,1.753
			c-1.424,0-2.847-0.584-2.847-1.753V23.732z M323.032,22.017h15.773c1.204,0,1.716,1.315,1.716,2.519
			c0,1.387-0.621,2.593-1.716,2.593h-5.039v19.825c0,1.169-1.424,1.753-2.847,1.753c-1.424,0-2.847-0.584-2.847-1.753V27.129h-5.039
			c-1.095,0-1.716-1.205-1.716-2.593C321.317,23.331,321.828,22.017,323.032,22.017z M468.201,282.143H284.867
			c0-5.17,0-211.43,0-216.603h183.335C468.201,78.192,468.201,270.023,468.201,282.143z"/>
	</g>
</g>
<g>
	<g>
		<path d="M418.943,159.802c-8.686,0-75.186,0-83.902,0c-20.609,0-37.459,16.508-37.561,36.878c0,5.719,0,47.653,0,53.47
			c-0.002,8.632,6.996,15.629,15.626,15.629h63.147c8.632,0,15.628-6.998,15.628-15.63c0-8.631-6.998-15.628-15.628-15.628h-47.519
			c0-5.338,0-34.39,0-37.761c0-0.001,0-0.001,0-0.001c0.01-1.823,1.493-3.294,3.316-3.288c1.822,0.006,3.297,1.484,3.297,3.307
			v24.848h40.906c15.754,0,28.525,12.771,28.525,28.525c0,5.563-1.598,10.75-4.351,15.137h17.701v-68.59
			c0-1.961,1.586-3.552,3.547-3.56c1.961-0.007,3.558,1.574,3.571,3.535c0,0.002,0,0.004,0,0.006v68.608h31.258v-68.686
			C456.402,176.31,439.552,159.802,418.943,159.802z"/>
	</g>
</g>
<g>
</g>
<g>
</g>
<g>
</g>
<g>
</g>
<g>
</g>
<g>
</g>
<g>
</g>
<g>
</g>
<g>
</g>
<g>
</g>
<g>
</g>
<g>
</g>
<g>
</g>
<g>
</g>
<g>
</g>
</svg>
