<?xml version="1.0" encoding="iso-8859-1"?>
<!-- Generator: Adobe Illustrator 19.0.0, SVG Export Plug-In . SVG Version: 6.00 Build 0)  -->
<svg version="1.1" id="Layer_1" xmlns="http://www.w3.org/2000/svg" xmlns:xlink="http://www.w3.org/1999/xlink" x="0px" y="0px"
	 viewBox="0 0 512.001 512.001" style="enable-background:new 0 0 512.001 512.001;" xml:space="preserve">
<g>
	<g>
		<circle cx="108.724" cy="95.143" r="37.973"/>
	</g>
</g>
<g>
	<g>
		<path d="M204.839,0.095c-9.288-0.98-17.613,5.75-18.595,15.038l-8.559,80.927l-41.855,54.412H79.402L40.15,89.523l-6.023-73.984
			C33.37,6.231,25.217-0.691,15.902,0.057C6.594,0.814-0.337,8.975,0.42,18.282l6.368,78.206c0.226,2.772,1.131,5.446,2.637,7.784
			c51.331,79.706,47.707,74.674,50.581,77.043v308.699c0,12.144,9.844,21.987,21.987,21.987c12.144,0,21.987-9.844,21.987-21.987
			V307.739h9.494v182.274c0,12.144,9.844,21.987,21.987,21.987c12.144,0,21.987-9.844,21.987-21.987c0-1.654,0-311.659,0-311.659
			l49.956-65.461c1.903-2.475,3.084-5.427,3.412-8.531l9.06-85.674C220.859,9.402,214.127,1.078,204.839,0.095z"/>
	</g>
</g>
<g>
	<g>
		<circle cx="374.154" cy="105.309" r="37.027"/>
	</g>
</g>
<g>
	<g>
		<path d="M497.683,136.421c-9.007-1.404-17.429,4.758-18.829,13.756l-6.44,41.367l-42.999-27.442
			c-5.188-3.311-11.214-5.07-17.368-5.07l-79.216,0.003c-3.983,0-7.948,0.541-11.786,1.607l-50.772,14.105l-25.185-55.432
			c-3.766-8.291-13.541-11.959-21.834-8.192c-8.292,3.767-11.959,13.542-8.192,21.834l31.023,68.282
			c3.368,7.41,11.623,11.241,19.435,9.065l61.309-17.065v94.998l-47.844,53.608c-3.964,4.442-5.904,10.334-5.352,16.263
			l8.252,88.703c1.098,11.794,11.55,20.462,23.336,19.363c11.791-1.097,20.46-11.545,19.362-23.335l-7.387-79.406l45.862-51.386
			h16.112c0.405,1.574-1.942-5.493,29.979,88.95l-9.759,87.176c-1.318,11.769,7.155,22.376,18.923,23.693
			c11.753,1.317,22.375-7.145,23.693-18.923l10.288-91.912c0.349-3.119,0.01-6.278-0.995-9.251l-29.829-88.252V197.375
			l54.179,35.864c10.001,6.62,23.547,0.666,25.395-11.214l10.394-66.773C512.84,146.251,506.681,137.822,497.683,136.421z"/>
	</g>
</g>
<g>
</g>
<g>
</g>
<g>
</g>
<g>
</g>
<g>
</g>
<g>
</g>
<g>
</g>
<g>
</g>
<g>
</g>
<g>
</g>
<g>
</g>
<g>
</g>
<g>
</g>
<g>
</g>
<g>
</g>
</svg>
