<?xml version="1.0" encoding="iso-8859-1"?>
<!-- Generator: Adobe Illustrator 19.0.0, SVG Export Plug-In . SVG Version: 6.00 Build 0)  -->
<svg version="1.1" id="Layer_1" xmlns="http://www.w3.org/2000/svg" xmlns:xlink="http://www.w3.org/1999/xlink" x="0px" y="0px"
	 viewBox="0 0 511.999 511.999" style="enable-background:new 0 0 511.999 511.999;" xml:space="preserve">
<g>
	<g>
		<path d="M104.926,187.549c4.482,0,8.786-1.88,11.836-5.222l60.282-66.045c5.967-6.538,5.505-16.676-1.033-22.643
			c-6.537-5.968-16.675-5.505-22.643,1.033l-54.913,60.164l-61.067-5.63c-6.765-0.623-13.48,1.631-18.498,6.209
			c-5.018,4.579-7.877,11.06-7.873,17.854l0.057,121.895L0.043,470.983c-0.77,12.272,8.961,22.709,21.349,22.709
			c11.19,0,20.596-8.71,21.308-20.032l9.784-155.938h14.001l17.843,62.577l-2.552,91.427c-0.335,12.001,9.292,21.965,21.372,21.965
			c11.526,0,21.027-9.178,21.351-20.773l2.643-94.717c0.06-2.181-0.213-4.358-0.812-6.456l-20.552-72.064v-96.806l-66.93-21.294
			C108.066,187.902,103.811,187.549,104.926,187.549z"/>
	</g>
</g>
<g>
	<g>
		<path d="M220.301,116.475c-5.085-7.245-15.082-8.993-22.326-3.909l-3.656,2.566c-1.314,3.97-3.456,7.735-6.457,11.022
			l-47.253,51.771l17.015-0.87c3.013-0.154,5.921-1.155,8.389-2.889l50.379-35.367C223.637,133.715,225.385,123.719,220.301,116.475
			z"/>
	</g>
</g>
<g>
	<g>
		<circle cx="58.421" cy="97.504" r="37.052"/>
	</g>
</g>
<g>
	<g>
		<path d="M361.396,193.726c4.482,0,8.786-1.88,11.836-5.222l60.281-66.045c5.967-6.538,5.505-16.676-1.033-22.643
			c-6.537-5.968-16.673-5.507-22.643,1.033l-54.913,60.164l-60.267-5.527c-6.959-0.638-13.865,1.682-19.027,6.393
			c-5.162,4.71-8.102,11.377-8.102,18.364l0.012,116.135l-16.328,74.894l-49.749,90.774c-5.672,10.349-1.88,23.338,8.47,29.01
			c10.348,5.673,23.338,1.88,29.01-8.47l51.233-93.479c0.983-1.793,1.703-3.72,2.139-5.718l12.969-59.493h19.427l16.082,56.4
			l-2.552,91.428c-0.335,12.007,9.299,21.965,21.372,21.965c11.526,0,21.027-9.178,21.351-20.773l2.643-94.718
			c0.06-2.18-0.213-4.358-0.812-6.456l-20.55-72.068v-90.628l-66.931-21.294C364.534,194.079,360.281,193.726,361.396,193.726z"/>
	</g>
</g>
<g>
	<g>
		<path d="M476.77,122.652c-5.085-7.246-15.081-8.994-22.325-3.909l-3.656,2.566c-1.314,3.97-3.456,7.735-6.458,11.023
			l-47.253,51.771l17.015-0.87c3.013-0.154,5.921-1.156,8.389-2.889l50.379-35.367C480.106,139.892,481.854,129.897,476.77,122.652z
			"/>
	</g>
</g>
<g>
	<g>
		<circle cx="314.897" cy="103.683" r="37.052"/>
	</g>
</g>
<g>
	<g>
		<path d="M186.425,48.422c-4.621,0-8.365,3.744-8.365,8.365s3.744,8.365,8.365,8.365c16.034,0,29.078,13.044,29.078,29.077
			c0,4.621,3.744,8.365,8.365,8.365s8.365-3.744,8.365-8.365C232.234,68.971,211.683,48.422,186.425,48.422z"/>
	</g>
</g>
<g>
	<g>
		<path d="M186.425,18.307c-4.621,0-8.365,3.744-8.365,8.365s3.744,8.365,8.365,8.365c32.64,0,59.193,26.554,59.193,59.192
			c0,4.621,3.744,8.365,8.365,8.365s8.365-3.744,8.365-8.365C262.348,52.366,228.289,18.307,186.425,18.307z"/>
	</g>
</g>
<g>
	<g>
		<path d="M436.076,55.221c-4.621,0-8.365,3.744-8.365,8.365s3.744,8.365,8.365,8.365c16.034,0,29.078,13.044,29.078,29.078
			c0,4.621,3.744,8.365,8.365,8.365s8.365-3.744,8.365-8.365C481.885,75.771,461.334,55.221,436.076,55.221z"/>
	</g>
</g>
<g>
	<g>
		<path d="M436.076,25.106c-4.621,0-8.365,3.744-8.365,8.365s3.744,8.365,8.365,8.365c32.64,0,59.193,26.554,59.193,59.193
			c0,4.621,3.744,8.365,8.365,8.365s8.365-3.744,8.365-8.365C511.999,59.166,477.94,25.106,436.076,25.106z"/>
	</g>
</g>
<g>
</g>
<g>
</g>
<g>
</g>
<g>
</g>
<g>
</g>
<g>
</g>
<g>
</g>
<g>
</g>
<g>
</g>
<g>
</g>
<g>
</g>
<g>
</g>
<g>
</g>
<g>
</g>
<g>
</g>
</svg>
