<?xml version="1.0" encoding="iso-8859-1"?>
<!-- Generator: Adobe Illustrator 19.0.0, SVG Export Plug-In . SVG Version: 6.00 Build 0)  -->
<svg version="1.1" id="Layer_1" xmlns="http://www.w3.org/2000/svg" xmlns:xlink="http://www.w3.org/1999/xlink" x="0px" y="0px"
	 viewBox="0 0 512.001 512.001" style="enable-background:new 0 0 512.001 512.001;" xml:space="preserve">
<g>
	<g>
		<circle cx="175.094" cy="76.394" r="40.33"/>
	</g>
</g>
<g>
	<g>
		<path d="M487.302,39.799c-36.109-27.389-81.312,1.699-120.017-9.58l3.518-21.852c0.479-2.977-1.545-5.778-4.522-6.257
			L353.608,0.07c-1.429-0.231-2.892,0.117-4.065,0.965c-1.173,0.848-1.962,2.128-2.193,3.557l-27.115,168.43l-42.32,21.517
			c-1.67-8.047-3.457-16.573-4.881-23.16c-5.487-25.394-23.388-41.802-45.606-41.802c-12.083,0-91.288,0-102.416,0l-50.455-11.801
			L61.188,37.559C59.42,26.961,49.403,19.807,38.797,21.565c-10.601,1.767-17.761,11.792-15.994,22.392l15.502,93.01
			c1.291,7.746,7.113,13.957,14.761,15.747c40.161,9.296,70.291,15.777,70.291,15.777l0.009,320.161
			c0,12.895,10.454,23.348,23.348,23.348c12.895,0,23.348-10.454,23.348-23.348V316.036h10.064v172.616
			c0,12.895,10.454,23.348,23.348,23.348c12.895,0,23.348-10.454,23.348-23.348V180.468c0-2.062,1.522-3.809,3.565-4.091
			c2.043-0.282,3.984,0.986,4.541,2.972c0.023,0.082,0.046,0.165,0.069,0.248c4.627,16.806,9.87,47.423,9.932,47.728
			c2.575,12.645,16.491,19.256,27.884,13.462l39.767-20.219l-0.726,4.51c-0.479,2.977,1.545,5.778,4.522,6.257l12.674,2.041
			c1.429,0.231,2.892-0.117,4.065-0.965s1.962-2.128,2.193-3.557l3.479-21.609l7.205-3.663c9.579-4.871,13.396-16.582,8.526-26.162
			c-2.115-4.16-5.523-7.231-9.485-8.976l7.702-47.838c37.191,10.838,80.381-15.595,115.74,6.618
			c1.551,0.974,3.486,1.105,5.154,0.351c1.668-0.754,2.849-2.295,3.14-4.103c4.21-26.15,8.419-52.3,12.629-78.45
			C489.717,43.027,488.91,41.019,487.302,39.799z"/>
	</g>
</g>
<g>
</g>
<g>
</g>
<g>
</g>
<g>
</g>
<g>
</g>
<g>
</g>
<g>
</g>
<g>
</g>
<g>
</g>
<g>
</g>
<g>
</g>
<g>
</g>
<g>
</g>
<g>
</g>
<g>
</g>
</svg>
