<?xml version="1.0" encoding="iso-8859-1"?>
<!-- Generator: Adobe Illustrator 19.0.0, SVG Export Plug-In . SVG Version: 6.00 Build 0)  -->
<svg version="1.1" id="Layer_1" xmlns="http://www.w3.org/2000/svg" xmlns:xlink="http://www.w3.org/1999/xlink" x="0px" y="0px"
	 viewBox="0 0 512.001 512.001" style="enable-background:new 0 0 512.001 512.001;" xml:space="preserve">
<g>
	<g>
		<path d="M412.95,419.293L376.075,399V221.941c-4.348,6.561-10.534,11.929-18.071,15.262c-3.018,1.335-6.17,2.296-9.404,2.891
			v158.906l-36.876,20.292c-6.648,3.658-9.07,12.012-5.412,18.658c3.658,6.649,12.013,9.07,18.658,5.412l37.368-20.563
			l37.367,20.563c6.646,3.66,15.002,1.232,18.658-5.412C422.02,431.304,419.598,422.95,412.95,419.293z"/>
	</g>
</g>
<g>
	<g>
		<path d="M401.554,117.348L382.566,98.38l6.13-8.431c6.986-9.61,4.86-23.062-4.75-30.048c-9.608-6.985-23.062-4.86-30.048,4.75
			l-2.144,2.95l-11.7-11.688c2.656-8.311,0.703-17.774-5.894-24.366c-9.402-9.392-24.638-9.383-34.031,0.019
			s-9.383,24.638,0.019,34.031c6.598,6.591,16.064,8.533,24.373,5.867l14.15,14.135l-19.505,26.831
			c-53.499-11.136-68.486-14.079-68.486-14.079h-58.102c-16.632,0-30.116,13.484-30.116,30.116v154.517h0.059
			c-0.058,1.042,0.083-4.105-1.496,58.611l-61.2,59.054c-10.258,9.899-10.551,26.24-0.652,36.499
			c9.9,10.26,26.242,10.548,36.499,0.652l68.816-66.401c4.88-4.709,7.71-11.148,7.881-17.926
			c1.865-74.076,1.775-68.818,1.681-70.488h10.382l11.638,86.427v116.778c0,14.256,11.556,25.813,25.813,25.813
			c14.256,0,25.813-11.556,25.813-25.813V367.68c0-1.152-0.077-2.304-0.231-3.444l-11.063-82.16v-35.797l-17.626,1.457
			c-13.693,1.13-27.467-4.391-36.543-15.869c-2.118-2.68,0.802,3.001-39.829-83.679l56.026,70.87
			c4.483,5.671,11.536,8.685,18.646,8.097l85.649-7.077c11.844-0.978,20.644-11.374,19.666-23.209c0-0.001,0-0.002,0-0.003
			c-0.971-11.705-11.31-20.646-23.209-19.663l-74.155,6.128l-50.737-64.178l56.89,42.949l5.22-0.431v-14.197l45.701,9.461
			c10.459,2.165,21.132-2.599,26.502-11.831v12.073c7.73,1.42,14.946,4.983,20.84,10.385c2.544,2.331,4.761,4.94,6.635,7.758
			v-52.353l9.945,9.934c4.293,4.285,11.249,4.285,15.542-0.011C405.852,128.595,405.849,121.637,401.554,117.348z"/>
	</g>
</g>
<g>
	<g>
		<circle cx="222.041" cy="42.201" r="42.201"/>
	</g>
</g>
<g>
</g>
<g>
</g>
<g>
</g>
<g>
</g>
<g>
</g>
<g>
</g>
<g>
</g>
<g>
</g>
<g>
</g>
<g>
</g>
<g>
</g>
<g>
</g>
<g>
</g>
<g>
</g>
<g>
</g>
</svg>
