<?xml version="1.0" encoding="iso-8859-1"?>
<!-- Generator: Adobe Illustrator 19.0.0, SVG Export Plug-In . SVG Version: 6.00 Build 0)  -->
<svg version="1.1" id="Layer_1" xmlns="http://www.w3.org/2000/svg" xmlns:xlink="http://www.w3.org/1999/xlink" x="0px" y="0px"
	 viewBox="0 0 511.999 511.999" style="enable-background:new 0 0 511.999 511.999;" xml:space="preserve">
<g>
	<g>
		<path d="M347.202,351.056c-6.988,0.001-13.831-1.109-20.382-3.282v140.138c0,13.302,10.784,24.086,24.086,24.086
			c13.302,0,24.086-10.784,24.086-24.086V345.258C365.938,349.053,356.489,351.056,347.202,351.056z"/>
	</g>
</g>
<g>
	<g>
		<path d="M285.131,307.103c-1.514-3.757-5.236-6.281-9.264-6.282c-0.376,0-5.308,0.719-9.665,0.719l-34.683,63.093
			c-1.77,3.22-2.779,6.801-2.953,10.47l-5.254,111.675c-0.644,13.681,10.256,25.22,24.08,25.22
			c12.782-0.001,23.433-10.053,24.041-22.955l4.993-106.098l26.949-49.026C295.434,326.612,289.255,317.337,285.131,307.103z"/>
	</g>
</g>
<g>
	<g>
		<path d="M134.158,231.671c-4.28-1.602-7.98-4.084-10.97-7.165c-11.626,0.971-22.802-4.853-28.595-15.191
			c-6.472,6.284-8.107,16.373-3.35,24.51c5.596,9.571,17.889,12.793,27.459,7.197l15.804-9.239
			C134.391,231.742,134.273,231.713,134.158,231.671z"/>
	</g>
</g>
<g>
	<g>
		<path d="M357.17,293.828c-17.772,12.55-42.336,8.25-54.829-9.443c-5.666-8.023-8.093-17.658-6.93-27.337
			c-1.233-0.174-2.468-0.472-3.684-0.925c-9.001-3.363-13.571-13.387-10.208-22.389c3.363-9.001,13.387-13.571,22.389-10.208
			c3.293,1.231,5.986,3.359,7.921,5.997c0.023-0.017,53.588-37.841,53.612-37.858c-11.357,0.06-19.159,3.864-24.313,6.206
			c-12.1,6.184-26.807,3.222-35.566-7.018c-0.001-0.001-0.001-0.001-0.001-0.001c-18.708-21.876-49.764-12.119-65.549,13.138
			c-0.001,0.002-0.002,0.003-0.003,0.006c-8.754-3.271-66.497-24.848-73.816-27.583l2.237-5.985
			c2.098-5.615-0.867-11.705-6.255-13.719c-5.37-2.006-11.584,0.612-13.719,6.255l-2.237,5.985l-3.994-1.493l2.237-5.985
			c2.061-5.516-0.74-11.657-6.255-13.719c-5.453-2.039-11.639,0.711-13.719,6.255l-2.237,5.985c-2.44-0.912-2.359-0.88-2.359-0.88
			c-6.916-2.565-14.556,0.993-17.113,7.813c-0.002,0.006-0.004,0.01-0.007,0.016c-2.576,6.895,0.924,14.572,7.819,17.148l2.33,0.871
			l-2.237,5.985c-2.051,5.489,0.762,11.665,6.255,13.719c5.454,2.038,11.653-0.723,13.719-6.255l2.237-5.985l3.994,1.493
			l-2.237,5.985c-2.22,5.943,1.21,12.614,7.561,14.104c5.237,1.232,10.556-1.669,12.414-6.64l2.237-5.985l73.816,27.583
			c-4.662,29.494,12.467,57.147,40.869,52.911h0.001c1.544-0.515,14.275-1.801,24.322,7.621c7.103,6.661,6.369,11.057,12.014,19.969
			c26.58,41.963,89.792,22.222,104.533-38.483c1.387-5.715,2.24-11.665,2.422-17.876C406.999,258.64,363.235,289.545,357.17,293.828
			z"/>
	</g>
</g>
<g>
	<g>
		<path d="M423.112,164.742c-0.13-26.061-21.439-47.263-47.501-47.263c-18.836,0-70.077,0-88.937,0
			c-23.682,0-47.005,6.317-67.45,18.271l-33.201,19.412c1.185,2.831,1.955,5.837,2.23,8.927
			c16.66,6.225,28.085,10.494,45.277,16.918c13.719-14.489,30.66-21.413,46.316-21.413c14.819,0,29.582,6.137,40.356,18.735
			c2.943,3.442,7.918,4.551,12.156,2.385c13.081-6.687,27.669-9.809,42.644-7.642v-15.448c5.086,0,7.945,3.529,7.965,7.381
			c0.11,13.762,0.197,24.542,0.303,37.659l-34.845,24.606l-25.529,18.027c-9.056,6.394-11.213,18.919-4.818,27.975
			c6.406,9.074,18.937,11.201,27.975,4.818c7.498-5.294,60.451-42.686,68.951-48.689c5.201-3.671,8.547-9.835,8.494-16.558
			C423.364,196.093,423.252,182.177,423.112,164.742z"/>
	</g>
</g>
<g>
	<g>
		<path d="M370.546,36.249h-7.91V11.599C362.635,5.193,357.442,0,351.036,0h-65.269c-6.406,0-11.599,5.193-11.599,11.599v24.649
			h-6.844c-5.888,0-10.662,4.773-10.662,10.662c0.001,5.887,4.775,10.661,10.663,10.661h9.792c-0.2,1.656-0.316,3.338-0.316,5.047
			c0,22.975,18.625,41.601,41.601,41.601c22.975,0,41.601-18.625,41.601-41.601c0-1.709-0.116-3.391-0.316-5.047h10.859
			c5.888,0,10.662-4.774,10.662-10.661C381.207,41.022,376.434,36.249,370.546,36.249z"/>
	</g>
</g>
<g>
</g>
<g>
</g>
<g>
</g>
<g>
</g>
<g>
</g>
<g>
</g>
<g>
</g>
<g>
</g>
<g>
</g>
<g>
</g>
<g>
</g>
<g>
</g>
<g>
</g>
<g>
</g>
<g>
</g>
</svg>
