<?xml version="1.0" encoding="iso-8859-1"?>
<!-- Generator: Adobe Illustrator 19.0.0, SVG Export Plug-In . SVG Version: 6.00 Build 0)  -->
<svg version="1.1" id="Layer_1" xmlns="http://www.w3.org/2000/svg" xmlns:xlink="http://www.w3.org/1999/xlink" x="0px" y="0px"
	 viewBox="0 0 512 512" style="enable-background:new 0 0 512 512;" xml:space="preserve">
<g>
	<g>
		<path d="M213.436,184.633l-10.939-3.096c-3.554-1.006-7.25,1.059-8.256,4.614l-10.597,37.437
			c-0.896-0.048-1.646-0.024-2.507,0.057c11.999,9.157,17.478,25.232,12.467,40.365c-5.896,17.805-24.221,27.997-42.15,24.144
			l-1.707,6.031c-1.026,3.625,1.08,7.394,4.706,8.421l36.447,10.316c3.617,1.024,7.392-1.075,8.421-4.704l16.452-58.122
			c2.23-7.876-1.419-16.014-8.319-19.768l10.597-37.438C219.055,189.339,216.99,185.639,213.436,184.633z"/>
	</g>
</g>
<g>
	<g>
		<circle cx="92.925" cy="74.455" r="39.311"/>
	</g>
</g>
<g>
	<g>
		<path d="M512,149.953c0-14.666-12.268-26.555-26.934-26.555h-47.357c-8.16,0-15.456,3.683-20.327,9.473l31.343-2.854
			l-67.197,22.165l-57.045-7.848c0-7.741,0-12.984,0-20.36c7.631-3.358,12.964-10.973,12.964-19.845V68.845
			c0-2.499-2.027-4.526-4.526-4.526h-34.314c-1.078,0-2.054,0.393-2.832,1.022l4.182-20.402c0.501-2.448-1.076-4.841-3.525-5.342
			l-33.615-6.89c-2.448-0.501-4.841,1.076-5.342,3.525l-7.084,34.564c-1.722,8.397,1.681,16.636,8.046,21.534l-3.328,16.237
			l-76.523,25.479l-52.308-6.601c-3.055-1.226-6.387-1.907-9.882-1.907H69.04c-14.666,0-27.975,11.889-27.975,26.555
			c0,163.176,0,203.807,0,203.807L1.722,447.946c-4.789,11.623,0.751,24.927,12.374,29.716c11.626,4.791,24.929-0.757,29.716-12.374
			l39.453-95.757c1.012-2.455,1.585-5.066,1.696-7.718c3.378-80.701,3.026-71.743,3.026-73.47h7.707l24.936,67.986l11.312,102.78
			c1.376,12.501,12.627,21.51,25.114,20.134c12.495-1.374,21.51-12.619,20.135-25.115l-11.615-105.53
			c-0.201-1.826-0.622-3.622-1.256-5.347l-8.414-22.939l-5.988-1.695c-11.319-3.204-20.149-14.953-15.812-30.275l1.475-5.213
			c-5.452-1.806-52.701-17.452-61.022-20.208c-9.147-3.029-15.207-11.12-16.126-20.122l-7.282-72.445l23.695,66.606
			c1.961,5.511,6.355,9.809,11.907,11.649l66.341,21.969c9.947,3.292,20.676-2.101,23.968-12.044
			c3.293-9.944-2.099-20.676-12.042-23.968l-57.541-19.054l-20.587-57.87l27.622,41.849l28.437,9.417v-41.12l35.161,4.437
			c2.9,0.366,5.794,0.033,8.366-0.822c2.26-0.752,81.705-27.204,83.695-27.866c10.017-3.336,15.27-14.178,12.005-23.988
			c-1.536-4.616-4.687-8.228-8.604-10.462l2.611-12.741c8.15-1.757,14.904-8.147,16.686-16.838l1.208-5.895v30.519
			c0,8.571,4.986,15.959,12.205,19.479c0,6.905,0,11.405,0,18.222l-3.13-0.43c-10.367-1.422-19.947,5.827-21.376,16.206
			c-1.428,10.376,5.828,19.947,16.206,21.376l82.723,11.381c2.797,0.385,5.717,0.149,8.527-0.778l71.373-23.542l-49.33,30.077
			v90.083l-14.858,55.358c-0.811,2.97-1.011,6.072-0.588,9.122l15.122,109.065c1.728,12.463,13.235,21.146,25.672,19.419
			c12.452-1.727,21.146-13.219,19.419-25.672l-14.482-104.444l17.157-62.848h7.667l0.466,170.483
			c0.034,12.549,10.218,22.699,22.76,22.699c0.021,0,0.042,0,0.063,0c12.572-0.034,22.355-10.252,22.321-22.823
			C511.022,99.13,512,254.97,512,149.953z"/>
	</g>
</g>
<g>
	<g>
		<circle cx="461.186" cy="72.314" r="39.311"/>
	</g>
</g>
<g>
</g>
<g>
</g>
<g>
</g>
<g>
</g>
<g>
</g>
<g>
</g>
<g>
</g>
<g>
</g>
<g>
</g>
<g>
</g>
<g>
</g>
<g>
</g>
<g>
</g>
<g>
</g>
<g>
</g>
</svg>
