<?xml version="1.0" encoding="iso-8859-1"?>
<!-- Generator: Adobe Illustrator 19.0.0, SVG Export Plug-In . SVG Version: 6.00 Build 0)  -->
<svg version="1.1" id="Layer_1" xmlns="http://www.w3.org/2000/svg" xmlns:xlink="http://www.w3.org/1999/xlink" x="0px" y="0px"
	 viewBox="0 0 512 512" style="enable-background:new 0 0 512 512;" xml:space="preserve">
<g>
	<g>
		<path d="M102.888,274.029c-6.123,11.6-21.223,14.555-31.257,6.407l-6.915-5.617c-9.16,6.477-11.584,19.09-5.34,28.501
			c6.358,9.587,19.285,12.203,28.873,5.844l45.557-30.218L102.888,274.029z"/>
	</g>
</g>
<g>
	<g>
		<path d="M484.333,75.875c-8.311-7.955-21.498-7.668-29.45,0.644l-54.308,56.735l-63.228-18.567
			c-11.511-3.379-23.702-3.461-35.256-0.234c-5.293,1.478-88.293,24.649-91.227,25.468c-15.716,4.388-29.072,14.461-37.609,28.367
			l-30.942,50.395l44.536,7.082l21.907-35.681c0.023-0.038,0.047-0.076,0.071-0.114c3.159-5.077,10.921-3.815,12.528,1.944
			l10.919,39.111l106.935-27.277l-11.045-39.562c-1.162-4.163,2.706-7.98,6.854-6.762l65.974,19.373
			c7.449,2.187,15.523,0.052,20.916-5.583l63.068-65.888C492.932,97.014,492.644,83.829,484.333,75.875z"/>
	</g>
</g>
<g>
	<g>
		<path d="M251.844,380.547l41.042-38.049l-43.664-27.69l-41.851,38.799c-6.497,6.023-9.32,15.035-7.42,23.689l25.254,115.061
			c2.961,13.49,16.298,22.015,29.773,19.056c13.484-2.96,22.014-16.29,19.056-29.773L251.844,380.547z"/>
	</g>
</g>
<g>
	<g>
		<path d="M493.44,352.382c-4.691-12.984-19.019-19.704-32.001-15.017l-42.329,15.29l3.442,12.576
			c3.004,10.977-0.366,22.912-9.123,30.179c-9.961,8.266-23.55,8.593-33.664,2.18l-50.915-32.288l-0.285,37.417
			c-0.133,17.337,17.092,29.623,33.487,23.7l116.374-42.037C491.406,379.693,498.129,365.365,493.44,352.382z"/>
	</g>
</g>
<g>
	<g>
		<path d="M300.257,40.816c-0.801-6.955-7.524-11.27-13.981-9.467l-7.906,2.207l-7.012-25.118c-1.714-6.137-8.078-9.724-14.215-8.01
			l-66.199,18.481c-6.137,1.714-9.724,8.078-8.01,14.216l7.012,25.119l-6.537,1.825c-5.287,1.476-8.976,6.519-8.328,11.97
			c0.696,5.859,5.599,9.837,10.994,9.837c0.986,0,1.987-0.133,2.982-0.41l9.787-2.733c0.262,1.71,0.615,3.423,1.093,5.132
			c6.411,22.964,30.225,36.383,53.188,29.972c22.965-6.411,36.384-30.225,29.972-53.188c-0.477-1.708-1.061-3.358-1.724-4.956
			l10.552-2.946C297.199,51.273,300.883,46.255,300.257,40.816z"/>
	</g>
</g>
<g>
	<g>
		<path d="M411.622,229.636c3.623-3.648,5.255-8.965,3.857-13.912c-2.155-7.628-9.821-11.798-17.1-9.942l-170.07,43.38
			L94.524,227.887c0.703-4.902-2.652-9.478-7.56-10.259l-64.121-10.196c-0.263-0.042-0.526-0.062-0.786-0.062
			c-4.678,0-6.784,5.905-3.143,8.862l63.181,51.323c2.393,1.944,6.035,0.587,6.525-2.497l1.567-9.853l128.174,20.382L388.65,383.575
			c5.002,3.173,11.723,2.296,15.738-2.496c2.573-3.071,3.298-7.294,2.24-11.158l-20.104-73.459
			c-5.516-20.156,0.163-41.723,14.889-56.549L411.622,229.636z M343.113,257.455l-7.572,47.614
			c-0.992,6.24-7.276,10.342-13.575,8.414c-5.065-1.551-8.042-6.813-7.21-12.045l7.521-47.297c0.915-5.75,6.315-9.675,12.075-8.761
			C340.105,246.295,344.028,251.701,343.113,257.455z M370.266,253.655c-6.176,4.231-14.688,1.569-17.274-5.616
			c-1.728-4.796,0.08-10.298,4.283-13.186c6.169-4.238,14.695-1.588,17.286,5.606C376.29,245.262,374.477,250.77,370.266,253.655z"
			/>
	</g>
</g>
<g>
</g>
<g>
</g>
<g>
</g>
<g>
</g>
<g>
</g>
<g>
</g>
<g>
</g>
<g>
</g>
<g>
</g>
<g>
</g>
<g>
</g>
<g>
</g>
<g>
</g>
<g>
</g>
<g>
</g>
</svg>
