<?xml version="1.0" encoding="iso-8859-1"?>
<!-- Generator: Adobe Illustrator 19.0.0, SVG Export Plug-In . SVG Version: 6.00 Build 0)  -->
<svg version="1.1" id="Layer_1" xmlns="http://www.w3.org/2000/svg" xmlns:xlink="http://www.w3.org/1999/xlink" x="0px" y="0px"
	 viewBox="0 0 512 512" style="enable-background:new 0 0 512 512;" xml:space="preserve">
<g>
	<g>
		<circle cx="390.824" cy="104.232" r="37.059"/>
	</g>
</g>
<g>
	<g>
		<path d="M498.324,30.427c-10-2.847-20.414,2.951-23.26,12.95l-21.428,75.259l-45.656,39.368
			c-2.696-0.903,0.445-0.268-52.055-9.064c-3.295-0.552-6.725-0.71-10.057-0.453c-6.844,0.529-22.17,1.54-53.404,2.938
			l-23.326-46.135c-4.69-9.278-16.013-13-25.295-8.307c-8.196,4.145-12.044,13.465-9.596,21.981
			c-1.379,1.235,1.461-1.967-36.67,42.519l-17.089-16.745c-10.614-10.4-24.644-16.128-39.503-16.128c-12.191,0-46.07,0-58.2,0
			c-4.073,0-8.018,1.424-11.153,4.026L6.307,186.872c-7.233,6.005-8.412,16.661-2.669,24.103l48.738,63.141l-8.885,51.274
			c-1.029,5.943,3.571,11.368,9.557,11.368c3.802,0,8.409,0,13.558,0v35.084l-37.255,66.16c-5.678,10.083-2.107,22.859,7.975,28.537
			c10.087,5.678,22.86,2.104,28.537-7.975l39.95-70.946c1.768-3.139,2.696-6.679,2.696-10.28v-40.578c3.012,0,6.034,0,9.046,0
			v123.297c0,11.571,9.381,20.952,20.952,20.952c11.572,0,20.952-9.381,20.952-20.952V336.757c5.149,0,9.756,0,13.557,0
			c6.016,0,10.586-5.428,9.557-11.368l-27.067-156.189c1.116,1.024-4.037-4.004,30.963,30.289c7.223,7.076,18.911,6.55,25.477-1.108
			l39.041-45.545l13.366,26.437c3.338,6.604,10.246,10.648,17.642,10.313l42.515-1.902l-16.931,104.574L262.9,347.758
			c-4.233,5.26-5.893,12.137-4.522,18.748l20.257,97.779c2.534,12.228,14.495,20.069,26.703,17.538
			c12.217-2.532,20.069-14.486,17.538-26.703l-18.093-87.338l44.973-55.87l9.272,1.501l-8.325,72.625
			c-0.656,5.727,0.902,11.489,4.354,16.105l53.181,71.091c7.475,9.994,21.634,12.028,31.622,4.558
			c9.99-7.473,12.031-21.631,4.558-31.622l-47.805-63.904l7.063-61.625l0.309,0.05l20.61-127.299l57.894-49.919
			c2.785-2.401,4.805-5.566,5.812-9.103l22.971-80.681C514.124,43.688,508.325,33.275,498.324,30.427z M60.464,227.444
			l-18.885-24.469l27.013-22.426L60.464,227.444z"/>
	</g>
</g>
<g>
	<g>
		<circle cx="113.029" cy="80.892" r="36.186"/>
	</g>
</g>
<g>
</g>
<g>
</g>
<g>
</g>
<g>
</g>
<g>
</g>
<g>
</g>
<g>
</g>
<g>
</g>
<g>
</g>
<g>
</g>
<g>
</g>
<g>
</g>
<g>
</g>
<g>
</g>
<g>
</g>
</svg>
