<?xml version="1.0" encoding="iso-8859-1"?>
<!-- Generator: Adobe Illustrator 19.0.0, SVG Export Plug-In . SVG Version: 6.00 Build 0)  -->
<svg version="1.1" id="Layer_1" xmlns="http://www.w3.org/2000/svg" xmlns:xlink="http://www.w3.org/1999/xlink" x="0px" y="0px"
	 viewBox="0 0 512 512" style="enable-background:new 0 0 512 512;" xml:space="preserve">
<g>
	<g>
		<path d="M464.101,122.341c-3.504-9.236-13.832-13.883-23.068-10.377l-59.093,22.424l-70.77-5.567c0,0-8.506-0.136-94.915-0.136
			l-48.489-5.688l23.504-31.285c3.481,4.68,8.326,7.586,13.688,7.586c2.728,0,5.319-0.755,7.669-2.11V60.152
			c2.083-23.994,22.267-42.887,46.792-42.887c25.906,0,47.097,21.076,47.097,46.982v32.941c2.349,1.354,5.055,2.11,7.783,2.11
			c10.595,0,19.184-11.337,19.184-25.322c0-10.227-4.596-19.031-11.208-23.028C316.129,21.883,290.284,0,259.417,0
			c-30.975,0-56.898,22.035-62.924,51.251c-0.92,0.598-1.795,1.292-2.625,2.069c-7.597-3.87-17.097-1.862-22.395,5.188
			l-51.001,67.885c-8.27,11.009-1.484,26.901,12.215,28.507l75.825,8.895v74.715c21.207,6.097,43.461,18.205,41.827,40.223h11.319
			c-1.811-24.41,25.578-36.661,49.511-42.216v-71.812l71.963,5.661c2.645,0.207,5.285-0.173,7.748-1.109l62.843-23.848
			C462.96,141.903,467.605,131.576,464.101,122.341z"/>
	</g>
</g>
<g>
	<g>
		<circle cx="259.63" cy="73.604" r="40.163"/>
	</g>
</g>
<g>
	<g>
		<path d="M493.297,295.997h-38.725c-18.378,20.924-64.758,26.089-92.68,26.089c-27.897,0-74.291-5.153-92.68-26.089h-26.423
			c-18.378,20.924-64.758,26.089-92.68,26.089c-27.897,0-74.291-5.153-92.68-26.089H18.703c-4.344,0-7.865,3.522-7.865,7.865v19.184
			c0,4.344,3.521,7.865,7.865,7.865H40.38c0,6.272,0,132.84,0,170.758c0,5.707,4.625,10.331,10.332,10.331h410.574
			c5.706,0,10.332-4.625,10.332-10.331c0-37.91,0-164.469,0-170.758h21.677c4.344,0,7.865-3.521,7.865-7.865v-19.184h0.001
			C501.162,299.518,497.641,295.997,493.297,295.997z"/>
	</g>
</g>
<g>
	<g>
		<path d="M150.108,248.422c-45.865,0-83.045,12.625-83.045,28.2c0,15.575,37.181,28.2,83.045,28.2s83.045-12.625,83.045-28.2
			C233.154,261.047,195.973,248.422,150.108,248.422z M150.108,287.656c-17.945,0-32.491-4.94-32.491-11.033
			c0-6.094,14.546-11.033,32.491-11.033c17.944,0,32.491,4.94,32.491,11.033S168.053,287.656,150.108,287.656z"/>
	</g>
</g>
<g>
	<g>
		<path d="M361.892,248.423c-45.865,0-83.045,12.625-83.045,28.2c0,15.574,37.181,28.2,83.045,28.2
			c45.865,0,83.045-12.625,83.045-28.2C444.937,261.048,407.756,248.423,361.892,248.423z M361.89,287.656
			c-17.945,0-32.491-4.94-32.491-11.033c0-6.093,14.546-11.033,32.491-11.033c17.945,0,32.491,4.94,32.491,11.033
			S379.835,287.656,361.89,287.656z"/>
	</g>
</g>
<g>
</g>
<g>
</g>
<g>
</g>
<g>
</g>
<g>
</g>
<g>
</g>
<g>
</g>
<g>
</g>
<g>
</g>
<g>
</g>
<g>
</g>
<g>
</g>
<g>
</g>
<g>
</g>
<g>
</g>
</svg>
