<?xml version="1.0" encoding="iso-8859-1"?>
<!-- Generator: Adobe Illustrator 19.0.0, SVG Export Plug-In . SVG Version: 6.00 Build 0)  -->
<svg version="1.1" id="Layer_1" xmlns="http://www.w3.org/2000/svg" xmlns:xlink="http://www.w3.org/1999/xlink" x="0px" y="0px"
	 viewBox="0 0 511.999 511.999" style="enable-background:new 0 0 511.999 511.999;" xml:space="preserve">
<g>
	<g>
		<path d="M356.726,304.683l-86.049-31.128l-36.687,50.149l79.144,28.631l-20.569,124.996c-2.674,16.25,8.332,31.592,24.582,34.266
			c16.271,2.674,31.594-8.35,34.266-24.582l24.594-149.451C378.338,323.392,370.232,309.569,356.726,304.683z"/>
	</g>
</g>
<g>
	<g>
		<path d="M482.776,158.916c-0.523-6.4-3.453-12.011-7.799-16.079l-54.526,32.077c-6.707,3.945-14.841,5.189-22.637,3.121
			l-25.184,14.815l87.404-7.142C473.711,184.589,483.894,172.595,482.776,158.916z"/>
	</g>
</g>
<g>
	<g>
		<path d="M135.469,349.184l1.348-14.517c1.206-12.979-4.664-25.708-15.316-33.22l-19.988-14.096l-11.005,78.728L33.023,467.467
			c-8.122,14.326-3.093,32.524,11.234,40.647c14.316,8.121,32.521,3.1,40.647-11.233c16.536-29.27,63.905-117.076,63.905-117.076
			C139.62,372.671,134.353,361.185,135.469,349.184z"/>
	</g>
</g>
<g>
	<g>
		<path d="M319.31,1.768c-27.469-7.362-55.715,8.947-63.075,36.419c-7.361,27.473,8.945,55.713,36.419,63.074
			c27.484,7.362,55.717-8.957,63.075-36.419C363.09,37.367,346.784,9.127,319.31,1.768z"/>
	</g>
</g>
<g>
	<g>
		<path d="M462.386,115.479c-0.012,0-0.024,0-0.037,0l-79.976,0.581c-3.051,0.022-4.931,3.347-3.387,5.972l4.971,8.449
			l-109.911,64.659l-63.057,7.879c1.809,16.823-5.253,33.878-19.356,44.369l17.036,28.957c2.902,4.934,1.256,11.287-3.678,14.189
			c-4.937,2.904-11.287,1.252-14.189-3.679l-18.156-30.861c-20.709,4.421-41.893-4.97-52.49-23.368l-9.81-17.032l-32.893,4.11
			c-10.7,1.337-14.163,15.194-5.351,21.408l61.41,43.305c16.78,11.833,25.955,31.734,24.056,52.179l-1.348,14.516
			c-0.576,6.205,3.061,12.031,8.889,14.239c5.821,2.205,12.407,0.259,16.092-4.776l101.82-139.185l114.721-67.49
			c1.677,2.754,4.615,4.286,7.631,4.286c1.536,0,3.092-0.397,4.513-1.232l54.985-32.346
			C469.161,122.081,467.36,115.479,462.386,115.479z M193.845,313.863c-1.731,4.433-5.971,7.146-10.46,7.146
			c-7.856,0-13.335-7.931-10.454-15.31c1.731-4.435,5.971-7.146,10.46-7.146C191.247,298.551,196.727,306.482,193.845,313.863z"/>
	</g>
</g>
<g>
	<g>
		<path d="M310.746,122.38c-7.845,0.525-15.532-0.219-23.145-2.26c-22.096-5.919-39.232-21.822-47.416-41.949
			c-4.157-1.923-10.517-4.971-17.978-8.558c-10.678-5.134-22.5-7.479-34.329-6.809c-28.135,1.594-50.234,2.942-93.219,5.143
			c-18.53,0.95-29.504,21.178-20.263,37.22l66.525,115.494c6.848,11.889,22.04,15.981,33.937,9.13
			c11.892-6.851,15.979-22.044,9.13-33.937l-46.281-80.347l26.865-1.376l39.591,68.734l63.026-7.875
			c9.413-5.538,53.594-31.529,61.054-35.916L310.746,122.38z"/>
	</g>
</g>
<g>
</g>
<g>
</g>
<g>
</g>
<g>
</g>
<g>
</g>
<g>
</g>
<g>
</g>
<g>
</g>
<g>
</g>
<g>
</g>
<g>
</g>
<g>
</g>
<g>
</g>
<g>
</g>
<g>
</g>
</svg>
