<?xml version="1.0" encoding="iso-8859-1"?>
<!-- Generator: Adobe Illustrator 19.0.0, SVG Export Plug-In . SVG Version: 6.00 Build 0)  -->
<svg version="1.1" id="Layer_1" xmlns="http://www.w3.org/2000/svg" xmlns:xlink="http://www.w3.org/1999/xlink" x="0px" y="0px"
	 viewBox="0 0 512 512" style="enable-background:new 0 0 512 512;" xml:space="preserve">
<g>
	<g>
		<path d="M446.026,41.606c-0.356-0.844-1.232-1.346-2.141-1.224c-0.908,0.122-1.624,0.838-1.742,1.746
			c-1.292,9.864-4.272,18.238-12.796,24.922c-13.305,10.621-26.053,9.618-39.364,18.442c-13.826,9.112-18.355,22.026-18.002,31.114
			c0.036,0.925,0.694,1.71,1.601,1.905c0.905,0.195,1.829-0.248,2.243-1.077c3.806-7.604,10.897-14.727,21.264-19.247
			c12.249-5.397,29.166-5.729,42.486-20.733C449.022,66.95,450.767,52.868,446.026,41.606z"/>
	</g>
</g>
<g>
	<g>
		<path d="M373.436,139.03c-0.739-5.191-19.079-6.872-40.964-3.754c-21.885,3.118-39.027,9.854-38.288,15.044
			c0.333,2.338,4.246,3.961,10.438,4.757l-38.661,24.661l-43.942-43.545c-3.504-3.473-8.237-5.42-13.169-5.42H108.4
			c-24.674,0-44.846,19.763-44.969,44.149v137.011c0,10.145,7.889,18.787,18.028,19.147c10.645,0.378,19.393-8.139,19.393-18.699
			V175.016c0.027-5.414,7.924-4.924,7.924,0.123c-0.001,46.814,0,314.407,0,314.407c0,12.672,10.498,22.892,23.271,22.438
			c12.167-0.433,21.634-10.801,21.634-22.977V310.081h9.695v178.928c0,12.174,9.467,22.544,21.634,22.977
			c12.773,0.454,23.271-9.766,23.271-22.438V174.859l41.961,41.985c6.222,6.165,15.872,7.18,23.232,2.485l60.07-38.316
			c8.713-5.557,11.27-17.125,5.713-25.836c-0.347-0.544-0.719-1.064-1.11-1.561C358.577,150.334,374.142,143.981,373.436,139.03z"/>
	</g>
</g>
<g>
	<g>
		<path d="M221.293,95.099l-6.966-21.204c-2.45,0.44-5.072,0.684-7.922,0.684c-13.231,0-29.784-4.517-47.625-4.517
			c-17.828,0-34.4,4.517-47.625,4.517c-2.752,0-5.29-0.229-7.669-0.64l-6.952,21.159c-1.327,4.039,0.872,8.388,4.91,9.715
			c4.033,1.327,8.388-0.867,9.716-4.91l0.879-2.673l-2.161,20.369c-0.448,4.227,2.615,8.017,6.842,8.467
			c0.276,0.029,0.551,0.044,0.822,0.044c3.886,0,7.225-2.934,7.645-6.886l1.841-17.344c7.014,9.994,18.617,16.532,31.754,16.532
			c13.281,0,24.996-6.679,31.986-16.858l1.875,17.67c0.419,3.952,3.758,6.886,7.645,6.886c0.271,0,0.546-0.016,0.822-0.044
			c4.228-0.449,7.291-4.24,6.842-8.467l-2.161-20.369l0.879,2.673c1.33,4.048,5.688,6.235,9.716,4.91
			C220.422,103.487,222.62,99.137,221.293,95.099z"/>
	</g>
</g>
<g>
	<g>
		<path d="M158.781,0c-34.73,0-62.882,20.105-62.882,44.905c0,11.207,5.751,14.28,15.258,14.28c11.531,0,28.589-4.517,47.625-4.517
			c19.032,0,36.094,4.517,47.625,4.517c9.51,0,15.258-3.07,15.258-14.28C221.664,20.105,193.511,0,158.781,0z"/>
	</g>
</g>
<g>
</g>
<g>
</g>
<g>
</g>
<g>
</g>
<g>
</g>
<g>
</g>
<g>
</g>
<g>
</g>
<g>
</g>
<g>
</g>
<g>
</g>
<g>
</g>
<g>
</g>
<g>
</g>
<g>
</g>
</svg>
