<?xml version="1.0" encoding="iso-8859-1"?>
<!-- Generator: Adobe Illustrator 19.0.0, SVG Export Plug-In . SVG Version: 6.00 Build 0)  -->
<svg version="1.1" id="Layer_1" xmlns="http://www.w3.org/2000/svg" xmlns:xlink="http://www.w3.org/1999/xlink" x="0px" y="0px"
	 viewBox="0 0 511.977 511.977" style="enable-background:new 0 0 511.977 511.977;" xml:space="preserve">
<g>
	<g>
		<path d="M244.478,357.115c-0.642-3.219-1.609-5.681-4.582-8.101c-3.272-2.664-6.122-2.697-9.577-3.183
			c-15.025-2.121-28.124-8.844-38.076-18.511l-44.626,144.453c-6.166,19.952,8.778,40.204,29.659,40.204h58.616
			c-9.007-14.341-11.396-31.96-6.356-48.278l4.265-13.806h-14.446l24.404-78.999C245.138,366.438,245.392,361.688,244.478,357.115z"
			/>
	</g>
</g>
<g>
	<g>
		<path d="M439.53,449.893c-13.836,0-100.411,0-112.118,0l4.677-15.141c-19.417,0.391-36.923-5.187-51.063-15.028
			c-2.611-1.817-5.095-3.781-7.462-5.87l-17.892,57.917c-6.166,19.952,8.776,40.204,29.658,40.204c8.496,0,145.938,0,154.197,0
			c17.145,0.001,31.043-13.897,31.043-31.041S456.674,449.893,439.53,449.893z"/>
	</g>
</g>
<g>
	<g>
		<circle cx="361.25" cy="53.608" r="53.608"/>
	</g>
</g>
<g>
	<g>
		<path d="M38.268,152.956c-2.082-4.107-3.461-8.52-4.116-13.041c-11.815,2.316-20.772,12.677-20.866,25.182
			c-0.106,14.287,11.387,25.955,25.675,26.062l8.409,0.063C37.539,181.048,34.125,166.274,38.268,152.956z"/>
	</g>
</g>
<g>
	<g>
		<path d="M359.18,346.353l-12.254,17.606c-4.334,6.227-12.897,7.765-19.127,3.428c-5.709-3.974-7.459-11.496-4.375-17.521
			c-16.777-4.114-31.098-16.564-36.802-34.207c-1.716-5.309-2.512-10.692-2.5-15.984c-5.145,0.525-10.494-0.702-15.071-3.888
			c-10.165-7.075-12.67-21.05-5.595-31.214c7.075-10.165,21.05-12.67,31.214-5.595c1.787,1.244,3.323,2.71,4.626,4.322
			c5.574-5.559,12.498-9.93,20.502-12.518c0.006-0.002,42.501-13.74,42.506-13.743c-14.028,0.712-20.641,5.901-35.353-0.006
			c-15.526-6.23-19.517-18.531-22.534-23.17c-16.693-25.678-54.232-27.155-83.295,0.322c-8.145-5.669-74.883-52.116-83.356-58.013
			l4.704-6.759c4.334-6.229,2.799-14.792-3.429-19.127c-6.218-4.33-14.811-2.776-19.127,3.429l-4.704,6.759l-4.51-3.139l4.704-6.759
			c4.41-6.339,2.644-14.9-3.429-19.127c-6.164-4.294-14.733-2.829-19.095,3.387c-0.01,0.014-0.022,0.027-0.033,0.041l-4.704,6.759
			c-2.733-1.903-2.646-1.841-2.646-1.841c-8.311-5.778-19.89-3.096-24.823,5.788c-4.225,7.612-2.083,17.336,5.216,22.416
			l2.632,1.832l-4.704,6.759c-4.334,6.228-2.799,14.792,3.429,19.127c6.443,4.486,15.064,2.546,19.127-3.429l4.704-6.759l4.51,3.139
			l-4.704,6.759c-4.393,6.311-2.679,14.875,3.429,19.127c6.237,4.342,14.806,2.778,19.127-3.429l4.704-6.759
			c15.189,10.572,77.129,53.679,83.356,58.013c-16.348,37.898-0.116,75.602,34.131,79.115c9.319,0.959,18.196,5.529,24.422,12.596
			c4.786,5.433,8.073,12.281,9.097,19.963c2.44,18.288,10.984,34.796,26.063,45.289c35.898,24.977,86.276,3.159,112.424-34.421
			c8.279-11.895,14.487-25.367,17.704-39.959L359.18,346.353z"/>
	</g>
</g>
<g>
	<g>
		<path d="M492.738,238.955c-34.586-41.736-26.912-32.476-62.258-75.127c-9.508-11.471-22.006-20.019-36.144-24.719
			c-8.517-2.831-111.622-37.104-111.622-37.104c-19.226-6.393-39.976-5.292-58.421,3.101l-56.146,25.545
			c1.632,5.543,2.042,11.421,1.103,17.181l34.022,23.678l42.445-19.312c0.001,0,0.002-0.001,0.002-0.001
			c3.116-1.417,6.775-0.854,9.32,1.435c2.545,2.289,3.49,5.868,2.41,9.115l-2.478,7.452c4.034-0.631,8.073-0.958,12.084-0.958
			c14.623,0,28.453,4.246,39.998,12.28c9.58,6.668,17.116,15.493,22.396,26.23c2.683,5.454,8.621,8.168,14.416,6.859
			c13.391-3.024,27.244-3.45,40.909-0.517l2.822-8.297c0.617-1.815,2.167-3.154,4.054-3.5c1.885-0.346,3.807,0.357,5.031,1.833
			c6.657,8.033,18.249,22.02,31.87,38.458l-100.863,32.611c-13.594,4.395-21.051,18.978-16.656,32.572
			c4.395,13.597,18.981,21.051,32.572,16.656l137.171-44.349C498.182,274.449,504.382,253.003,492.738,238.955z"/>
	</g>
</g>
<g>
</g>
<g>
</g>
<g>
</g>
<g>
</g>
<g>
</g>
<g>
</g>
<g>
</g>
<g>
</g>
<g>
</g>
<g>
</g>
<g>
</g>
<g>
</g>
<g>
</g>
<g>
</g>
<g>
</g>
</svg>
