<?xml version="1.0" encoding="iso-8859-1"?>
<!-- Generator: Adobe Illustrator 19.0.0, SVG Export Plug-In . SVG Version: 6.00 Build 0)  -->
<svg version="1.1" id="Layer_1" xmlns="http://www.w3.org/2000/svg" xmlns:xlink="http://www.w3.org/1999/xlink" x="0px" y="0px"
	 viewBox="0 0 512.002 512.002" style="enable-background:new 0 0 512.002 512.002;" xml:space="preserve">
<g>
	<g>
		<path d="M511.284,454.333l-24.956-94.705l22.316-64.058c3.58-10.275,3.93-21.398,1.005-31.878l-36.683-131.411
			c-3.985-14.182-18.659-22.498-32.873-18.63l-52.362,14.25l-25.838-1.043L326.74,71.545c-5.33-8.388-16.452-10.866-24.837-5.536
			c-8.388,5.33-10.865,16.451-5.536,24.838l40.204,63.262c3.165,4.979,8.568,8.09,14.461,8.328l32.383,1.307l6.097,21.696
			l31.645-39.131l-28.206,62.35c-70.02,11.421-60.562,9.87-61.817,10.104c-9.507,1.764-16.06,10.851-14.474,20.572
			c1.614,9.9,10.964,16.461,20.656,14.862l70.951-11.572c8.533-1.392,13.044-8.53,13.497-10.343l31.147-68.851l-14.198,72.185
			c-1.507,7.663-10.627,21.279-28.313,24.162l3.269,11.634l-30.158,86.045c-0.96,2.738-1.358,5.642-1.17,8.537l6.168,95.238
			c0.771,11.898,11.039,20.922,22.943,20.152c11.9-0.771,20.922-11.043,20.151-22.943l-5.885-90.85l27.019-77.089l12.893-3.509
			l-22.269,64.792c-1.387,4.036-1.547,8.392-0.46,12.52l26.623,101.034c3.039,11.535,14.852,18.416,26.381,15.378
			C507.438,477.676,514.323,465.865,511.284,454.333z"/>
	</g>
</g>
<g>
	<g>
		<circle cx="395.629" cy="70.281" r="39.715"/>
	</g>
</g>
<g>
	<g>
		<path d="M283.575,39.233c-8.196-5.621-19.395-3.535-25.016,4.66l-45.406,66.202l-56.386,12.029l-31.124-8.47
			c-14.201-3.865-28.861,4.433-32.861,18.591l24.8,1.265c-0.002,0-74.352,13.504-74.353,13.504
			c-5.967,1.085-10.939,5.083-13.31,10.583L1.473,223.617c-3.928,9.11,0.266,19.707,9.404,23.645
			c9.52,4.102,20.224-0.851,23.645-9.404l24.63-57.16l67.332-12.229L76.015,191.91l-19.279,68.818
			c-3.338,11.916-2.966,24.565,1.069,36.263l21.601,62.639l-24.954,94.703c-3.039,11.531,3.846,23.342,15.378,26.381
			c11.513,3.037,23.338-3.832,26.381-15.378l26.623-101.034c1.087-4.127,0.927-8.484-0.46-12.52l-22.269-64.792l12.893,3.509
			l27.019,77.089l-5.885,90.849c-0.804,12.416,9.035,22.989,21.567,22.989c11.288-0.001,20.785-8.773,21.526-20.197l6.168-95.238
			c0.188-2.895-0.21-5.799-1.17-8.537l-30.158-86.045l33.324-118.598l42.29-9.022c4.509-0.962,8.477-3.618,11.084-7.42
			l49.468-72.123C293.857,56.052,291.77,44.853,283.575,39.233z"/>
	</g>
</g>
<g>
	<g>
		<circle cx="170.112" cy="70.281" r="39.715"/>
	</g>
</g>
<g>
</g>
<g>
</g>
<g>
</g>
<g>
</g>
<g>
</g>
<g>
</g>
<g>
</g>
<g>
</g>
<g>
</g>
<g>
</g>
<g>
</g>
<g>
</g>
<g>
</g>
<g>
</g>
<g>
</g>
</svg>
