<?xml version="1.0" encoding="iso-8859-1"?>
<!-- Generator: Adobe Illustrator 19.0.0, SVG Export Plug-In . SVG Version: 6.00 Build 0)  -->
<svg version="1.1" id="Layer_1" xmlns="http://www.w3.org/2000/svg" xmlns:xlink="http://www.w3.org/1999/xlink" x="0px" y="0px"
	 viewBox="0 0 511.998 511.998" style="enable-background:new 0 0 511.998 511.998;" xml:space="preserve">
<g>
	<g>
		<path d="M498.777,11.817c-8.877-1.748-17.491,4.031-19.24,12.911L464.393,95.59l-44.636,60.918h-68.45l-66.135-7.758
			l-42.928-52.705c-0.419-0.515-0.87-0.987-1.336-1.437l0.002-0.01c1.738-8.207-2.094-16.285-8.927-20.344l8.396-39.64
			c0.23-1.086,0.019-2.218-0.586-3.15c-0.606-0.93-1.555-1.583-2.642-1.813l-15.224-3.224c-2.262-0.479-4.484,0.966-4.962,3.228
			l-8.396,39.639c-7.892,0.939-14.67,6.77-16.41,14.978l-11.397,53.809c-0.866,4.089,1.747,8.107,5.836,8.973l33.941,7.189
			c4.089,0.866,8.107-1.747,8.973-5.836l2.706-12.78l31.74,38.969c2.691,3.303,6.563,5.429,10.794,5.925l69.459,8.148v111.08h2.533
			c18.6,0,33.678,15.078,33.678,33.678c0,18.6-15.078,33.678-33.678,33.678h-2.919V479.18c0,11.766,9.539,21.304,21.304,21.304
			s21.304-9.539,21.304-21.304c0-18.869,0-166.23,0-170.29h9.217c0,0,21.042,89.162,41.867,175.309
			c2.775,11.448,14.307,18.456,25.725,15.684c11.435-2.772,18.457-14.29,15.684-25.724l-40.678-167.78V185.442l54.69-73.355
			c1.438-1.951,2.424-4.188,2.891-6.562l15.853-74.468C513.436,22.179,507.655,13.566,498.777,11.817z"/>
	</g>
</g>
<g>
	<g>
		<circle cx="391.044" cy="106.043" r="36.789"/>
	</g>
</g>
<g>
	<g>
		<circle cx="86.871" cy="175.854" r="37.923"/>
	</g>
</g>
<g>
	<g>
		<path d="M346.748,319.206c-175.898,0-164.227-0.068-165.784,0.139c-7.069,0.938-12.337,6.982-12.337,14.082
			c0,2.795,0.818,5.394,2.211,7.593c-0.88-0.053-44.904,0.08-65.873,0.147c-6.989,0.022-13.526-3.573-17.239-9.494
			c-5.865-9.354-17.116-27.891-38.675-64.621c-0.065-0.11-0.112-0.223-0.173-0.333l52.97,55.444
			c5.013,5.247,12.778,6.775,19.402,3.831l68.578-30.485c8.67-3.854,12.575-14.008,8.72-22.678
			c-3.854-8.672-14.009-12.574-22.678-8.72l-57.529,25.573l-41.855-43.81l38.917,24.523l0.287-10.122
			c0.453-15.977-12.217-29.266-28.191-29.581l-26.462-0.523c-15.996-0.317-29.663,12.492-29.82,28.481v97.576
			c-0.096,9.629,4.169,18.901,12.591,24.385H14.219C6.368,380.615,0,386.983,0,394.836c0,7.854,6.368,14.222,14.221,14.222h11.247
			l-8.177,28.272h-5.656c-5.236,0-9.481,4.245-9.481,9.481s4.245,9.481,9.481,9.481h0.172l-9.28,32.082
			c-1.455,5.03,1.444,10.288,6.473,11.743c5.034,1.455,10.288-1.446,11.743-6.473l10.803-37.35h74.459l1.946,5.045l-4.331,10.947
			c-4.19,10.588,0.997,22.567,11.585,26.756c10.584,4.189,22.567-0.996,26.757-11.585l46.801-118.27
			c2.463-6.225,1.782-13.455-2.136-19.202c-0.567-0.831-1.195-1.606-1.865-2.335h65.817c0,25.929,0,98.449,0,124.399h-19.456
			c-7.855,0-14.221,6.367-14.221,14.221c0,7.855,6.368,14.222,14.221,14.222h67.356c7.851,0.001,14.219-6.366,14.219-14.221
			c0-7.855-6.368-14.221-14.221-14.221H279.02c0-25.956,0-98.476,0-124.399h67.728c7.855,0,14.221-6.368,14.221-14.222
			C360.969,325.574,354.601,319.206,346.748,319.206z M37.03,437.329l8.177-28.272h42.58l10.903,28.272H37.03z M118.243,435.327
			l-10.131-26.268h5.662c7.855,0,14.221-6.367,14.221-14.222c0-5.379-2.989-10.06-7.395-12.476l18.624-0.055L118.243,435.327z"/>
	</g>
</g>
<g>
</g>
<g>
</g>
<g>
</g>
<g>
</g>
<g>
</g>
<g>
</g>
<g>
</g>
<g>
</g>
<g>
</g>
<g>
</g>
<g>
</g>
<g>
</g>
<g>
</g>
<g>
</g>
<g>
</g>
</svg>
