<?xml version="1.0" encoding="iso-8859-1"?>
<!-- Generator: Adobe Illustrator 19.0.0, SVG Export Plug-In . SVG Version: 6.00 Build 0)  -->
<svg version="1.1" id="Layer_1" xmlns="http://www.w3.org/2000/svg" xmlns:xlink="http://www.w3.org/1999/xlink" x="0px" y="0px"
	 viewBox="0 0 512 512" style="enable-background:new 0 0 512 512;" xml:space="preserve">
<g>
	<g>
		<path d="M426.638,72.584c-4.506-1.115-9.04,1.819-10.29,6.29l-3.239,11.59c-1.426-0.611-2.94-1.075-4.544-1.325
			c-2.408-0.374-4.774-0.26-7.018,0.241l-1.853-17.915c-0.482-4.658-4.642-8.046-9.305-7.561c-4.657,0.481-8.042,4.647-7.561,9.305
			l3.618,34.981l-6.882,44.212c-35.603-23.567-52.056-34.552-60.497-39.745c-0.682,0.975-1.365,1.963-1.365,1.963
			c-10.423,17.234-29.343,28.781-50.911,28.781c-22.366,0-41.879-12.419-52.026-30.718l-57.208-19.991L133.82,38.48l-6.011-31.258
			c-0.876-4.558-5.154-7.858-9.735-7.119c-4.742,0.764-7.882,5.288-6.982,9.971l3.1,16.119c-1.937,0.189-3.876,0.671-5.756,1.493
			c-2.703,1.183-4.973,2.936-6.77,5.038l-7.636-8.811c-3.04-3.508-8.394-4.224-11.991-1.291c-3.722,3.036-4.177,8.524-1.054,12.127
			l19.977,23.052l25.233,57.629c2.109,4.818,6.128,8.54,11.093,10.274c79.635,27.827,73.713,25.808,75.196,26.166v130.401
			l-46.911,199.482c-3.111,13.23,5.092,26.476,18.321,29.586c13.207,3.11,26.472-5.074,29.588-18.32l47.578-202.322h11.465
			l47.578,202.322c3.118,13.258,16.39,21.428,29.588,18.32c13.23-3.111,21.431-16.357,18.321-29.586L321.1,282.273v-123.18
			c71.17,47.111,61.209,40.524,62.404,41.297c11.546,7.419,26.828,0.43,28.92-13.008l11.058-71.035l9.29-33.25
			C434.056,78.506,431.301,73.739,426.638,72.584z"/>
	</g>
</g>
<g>
	<g>
		<circle cx="266.796" cy="83.948" r="42.496"/>
	</g>
</g>
<g>
</g>
<g>
</g>
<g>
</g>
<g>
</g>
<g>
</g>
<g>
</g>
<g>
</g>
<g>
</g>
<g>
</g>
<g>
</g>
<g>
</g>
<g>
</g>
<g>
</g>
<g>
</g>
<g>
</g>
</svg>
