<?xml version="1.0" encoding="iso-8859-1"?>
<!-- Generator: Adobe Illustrator 19.0.0, SVG Export Plug-In . SVG Version: 6.00 Build 0)  -->
<svg version="1.1" id="Layer_1" xmlns="http://www.w3.org/2000/svg" xmlns:xlink="http://www.w3.org/1999/xlink" x="0px" y="0px"
	 viewBox="0 0 512 512" style="enable-background:new 0 0 512 512;" xml:space="preserve">
<g>
	<g>
		<path d="M343.7,374.655c-0.425-2.132-1.066-3.762-3.033-5.364c-2.166-1.764-4.054-1.785-6.34-2.107
			c-9.947-1.405-18.62-5.856-25.208-12.255l-29.544,95.634c-4.081,13.209,5.811,26.617,19.635,26.617h38.807
			c-5.962-9.494-7.544-21.159-4.208-31.962l2.823-9.14h-9.564l16.157-52.301C344.136,380.827,344.305,377.682,343.7,374.655z"/>
	</g>
</g>
<g>
	<g>
		<path d="M472.832,436.078c-9.16,0-66.477,0-74.226,0l3.097-10.024c-12.855,0.259-24.444-3.434-33.806-9.949
			c-1.729-1.204-3.373-2.504-4.94-3.886l-11.846,38.344c-4.081,13.209,5.811,26.617,19.635,26.617c5.625,0,96.618,0,102.086,0
			c11.351,0,20.552-9.201,20.552-20.552C493.384,445.279,484.183,436.078,472.832,436.078z"/>
	</g>
</g>
<g>
	<g>
		<circle cx="421.012" cy="173.718" r="35.495"/>
	</g>
</g>
<g>
	<g>
		<path d="M207.18,239.492c-1.378-2.719-2.291-5.64-2.725-8.634c-7.822,1.533-13.752,8.393-13.814,16.672
			c-0.07,9.459,7.539,17.183,16.999,17.254l5.567,0.041C206.697,258.09,204.436,248.308,207.18,239.492z"/>
	</g>
</g>
<g>
	<g>
		<path d="M419.637,367.528l-8.113,11.656c-2.869,4.122-8.538,5.141-12.663,2.269c-3.779-2.631-4.939-7.611-2.897-11.599
			c-11.107-2.724-20.588-10.965-24.365-22.647c-1.136-3.514-1.663-7.078-1.655-10.582c-3.406,0.347-6.947-0.465-9.977-2.574
			c-6.729-4.683-8.388-13.935-3.705-20.665c4.683-6.729,13.936-8.388,20.665-3.705c1.182,0.824,2.199,1.794,3.063,2.861
			c3.691-3.681,8.274-6.574,13.573-8.287c0.003-0.001,28.137-9.097,28.14-9.098c-9.288,0.472-13.666,3.907-23.405-0.003
			c-10.278-4.125-12.922-12.269-14.918-15.34c-11.051-17-35.904-17.978-55.145,0.213c-5.393-3.753-49.576-34.503-55.185-38.407
			l3.114-4.474c2.869-4.124,1.853-9.793-2.271-12.663c-4.117-2.868-9.805-1.839-12.663,2.271l-3.114,4.474l-2.986-2.078l3.114-4.474
			c2.92-4.197,1.75-9.864-2.271-12.663c-4.081-2.842-9.754-1.873-12.641,2.243c-0.007,0.01-0.016,0.018-0.022,0.027l-3.114,4.474
			c-1.81-1.259-1.752-1.219-1.752-1.218c-5.502-3.825-13.168-2.05-16.435,3.832c-2.797,5.04-1.379,11.477,3.453,14.84l1.742,1.212
			l-3.114,4.474c-2.869,4.124-1.853,9.793,2.271,12.663c4.267,2.97,9.974,1.685,12.663-2.271l3.114-4.474l2.986,2.077l-3.114,4.474
			c-2.908,4.178-1.773,9.848,2.271,12.663c4.129,2.873,9.803,1.839,12.663-2.271l3.114-4.474
			c10.056,6.999,51.062,35.538,55.186,38.407c-10.822,25.093-0.074,50.055,22.598,52.381c6.17,0.634,12.047,3.658,16.168,8.337
			c3.169,3.597,5.345,8.131,6.023,13.216c1.615,12.108,7.272,23.035,17.254,29.983c23.766,16.536,57.118,2.092,74.43-22.789
			c5.48-7.875,9.591-16.793,11.721-26.455L419.637,367.528z"/>
	</g>
</g>
<g>
	<g>
		<path d="M508.059,296.427c-22.898-27.631-17.817-21.501-41.217-49.738c-6.294-7.594-14.568-13.254-23.929-16.366
			c-5.639-1.874-73.899-24.565-73.899-24.565c-12.728-4.234-26.466-3.504-38.677,2.053l-37.17,16.913
			c1.08,3.669,1.351,7.561,0.731,11.374l22.524,15.676l28.1-12.786c0,0,0.001,0,0.002,0c2.063-0.938,4.486-0.565,6.17,0.95
			c1.685,1.516,2.311,3.885,1.596,6.034l-1.64,4.933c2.67-0.419,5.345-0.634,8.001-0.634c9.681,0,18.837,2.811,26.48,8.13
			c6.342,4.414,11.332,10.257,14.827,17.365c1.776,3.611,5.707,5.408,9.544,4.541c8.866-2.003,18.037-2.284,27.083-0.342
			l1.869-5.494c0.409-1.201,1.436-2.089,2.684-2.317c1.248-0.229,2.52,0.236,3.33,1.214c4.407,5.318,12.081,14.578,21.099,25.461
			l-66.775,21.59c-8.999,2.91-13.936,12.564-11.026,21.564c2.91,9.002,12.566,13.936,21.564,11.026l90.814-29.361
			C511.663,319.926,515.768,305.728,508.059,296.427z"/>
	</g>
</g>
<g>
	<g>
		<path d="M143.301,415.334L136,449.815c-2.593,12.245,5.232,24.275,17.477,26.868c12.254,2.594,24.278-5.24,26.869-17.477
			l21.068-99.485C201.414,359.721,158.671,401.235,143.301,415.334z"/>
	</g>
</g>
<g>
	<g>
		<path d="M309.72,76.913c-0.308-5.293-4.812-9.331-10.137-9.027l-18.402,1.066c-1.83-4.185-5.154-7.731-9.662-9.72
			c-9.544-4.21-20.694,0.113-24.904,9.657l-0.935,2.12l-23.609,1.368c-0.293,0.017-0.582,0.052-0.866,0.094
			c-3.577-5.288-9.754-8.624-16.59-8.227c-10.326,0.598-18.211,9.454-17.613,19.78c0.598,10.326,9.454,18.211,19.78,17.613
			c6.839-0.396,12.59-4.426,15.532-10.094c0.102,0.003,0.203,0.014,0.305,0.014c0.187,0,0.374-0.006,0.564-0.016l13.793-0.799
			l-14.581,33.057l-53.602,5.568c-4.225-2.861-9.321-4.532-14.808-4.532h-47.159c-7.87,0-14.932,3.442-19.776,8.898l20.956-1.899
			l-75.272,25.024c-5.968,1.984-10.596,6.825-12.267,12.966C-1.741,251.476,0.875,241.833,0.597,242.93
			c-2.606,10.204,3.596,20.243,13.335,22.891c9.999,2.72,20.44-3.187,23.182-13.268c1.969-7.24,15.426-56.718,17.146-63.042
			l68.165-22.661l-42.041,27.312c0,10.005,0,83.045,0,92.788v0.913l0.041-0.034c0.231,5.93,2.76,11.762,7.537,16.027
			c5.445,4.862,31.495,28.121,43.769,39.081L72.139,398.96c-9.119,8.574-9.563,22.918-0.988,32.037
			c8.576,9.123,22.921,9.56,32.037,0.989l77.613-72.966c9.685-9.105,9.487-24.568-0.427-33.421l-48.725-43.507
			c62.858,34.19,59.19,32.171,60.26,32.82l-11.482-31.304V166.135l56.773-5.897c6.743-0.701,12.594-4.961,15.33-11.163
			l26.816-60.788l21.349-1.237C305.986,86.742,310.026,82.204,309.72,76.913z"/>
	</g>
</g>
<g>
	<g>
		<circle cx="130.615" cy="73.969" r="39.149"/>
	</g>
</g>
<g>
</g>
<g>
</g>
<g>
</g>
<g>
</g>
<g>
</g>
<g>
</g>
<g>
</g>
<g>
</g>
<g>
</g>
<g>
</g>
<g>
</g>
<g>
</g>
<g>
</g>
<g>
</g>
<g>
</g>
</svg>
