<?xml version="1.0" encoding="iso-8859-1"?>
<!-- Generator: Adobe Illustrator 19.0.0, SVG Export Plug-In . SVG Version: 6.00 Build 0)  -->
<svg version="1.1" id="Layer_1" xmlns="http://www.w3.org/2000/svg" xmlns:xlink="http://www.w3.org/1999/xlink" x="0px" y="0px"
	 viewBox="0 0 511.999 511.999" style="enable-background:new 0 0 511.999 511.999;" xml:space="preserve">
<g>
	<g>
		<circle cx="255.205" cy="87.783" r="40.742"/>
	</g>
</g>
<g>
	<g>
		<path d="M418.991,87.881v-8.709c0-4.337-4.035-7.557-8.265-6.592l-64.106,14.619C346.22,84.267,343.732,82,340.69,82h-18.215
			c-3.321,0-6.013,2.692-6.013,6.013v6.527c-6.75,0-12.221,5.472-12.221,12.221c0,6.75,5.472,12.221,12.221,12.221v6.526
			c0,3.321,2.692,6.013,6.013,6.013h11.534l8.049,26.748l-13.55,27.48l-34.984-39.408c-2.977-3.352-7.246-5.272-11.73-5.272h-76.935
			l-54.894-43.55L107.619,9.954c-4.237-8.762-14.774-12.428-23.535-8.192c-8.762,4.237-12.429,14.774-8.192,23.535l44.11,91.212
			c1.161,2.401,2.852,4.506,4.943,6.158l61.005,48.168v124.231l-17.951,82.342l-54.7,99.801
			c-6.236,11.379-2.068,25.659,9.311,31.896c11.382,6.237,25.662,2.065,31.896-9.311l56.33-102.775
			c1.081-1.972,1.873-4.09,2.352-6.287l14.26-65.411h21.36l17.68,62.005l-2.805,100.52c-0.368,13.199,10.221,24.151,23.498,24.151
			c12.671-0.001,23.118-10.092,23.474-22.839l2.907-104.139c0.067-2.399-0.234-4.793-0.891-7.099l-22.595-79.238V195.05
			l29.034,33.91c8.196,9.575,23.589,7.691,29.19-3.667l14.221-28.841c1.712,0.134,3.364-0.065,4.92-0.531
			c7.116-2.143,11.15-9.647,9.009-16.765l-2.047-6.801l9.035-18.322c3.381-6.859,1.875-14.837-3.152-20.036l30.438,6.941
			c4.228,0.965,8.265-2.253,8.265-6.592v-8.709c10.43,0,18.881-8.452,18.881-18.878C437.869,96.333,429.417,87.881,418.991,87.881z"
			/>
	</g>
</g>
<g>
</g>
<g>
</g>
<g>
</g>
<g>
</g>
<g>
</g>
<g>
</g>
<g>
</g>
<g>
</g>
<g>
</g>
<g>
</g>
<g>
</g>
<g>
</g>
<g>
</g>
<g>
</g>
<g>
</g>
</svg>
