<?xml version="1.0" encoding="iso-8859-1"?>
<!-- Generator: Adobe Illustrator 19.0.0, SVG Export Plug-In . SVG Version: 6.00 Build 0)  -->
<svg version="1.1" id="Layer_1" xmlns="http://www.w3.org/2000/svg" xmlns:xlink="http://www.w3.org/1999/xlink" x="0px" y="0px"
	 viewBox="0 0 511.999 511.999" style="enable-background:new 0 0 511.999 511.999;" xml:space="preserve">
<g>
	<g>
		<g>
			<path d="M443.329,86.175c0.033,0.037,0.031,0.03,0.005-0.005C443.332,86.172,443.331,86.173,443.329,86.175z"/>
			<path d="M416.371,18.958c-21.55,0-39.02,17.469-39.02,39.02c0.001,11.405,4.897,21.667,12.7,28.802
				c6.592-7.731,16.303-12.508,27.102-12.466c16.4,0.426,25.725,11.251,26.182,11.856c7.426-7.104,12.058-17.103,12.058-28.191
				C455.391,36.429,437.922,18.958,416.371,18.958z"/>
		</g>
	</g>
</g>
<g>
	<g>
		<path d="M466.75,109.435h-14.477c0.055,9.785-3.798,18.613-10.144,25.032c-0.042,18.447-0.013,5.647-0.049,21.371
			c9.738,18.185,1.916,40.675-16.589,49.119c-7.384,3.37-52.918,24.145-59.444,27.123c0,20.122,0.008,238.368,0.008,238.368
			c0,12.477,10.115,22.593,22.593,22.593s22.593-10.115,22.593-22.593V289.863h9.754v180.585c0,12.477,10.115,22.593,22.593,22.593
			s22.593-10.115,22.593-22.593c0-28.915,0-317.744,0-316.565c0-2.362,1.502-4.28,3.864-4.288s4.287,1.897,4.301,4.26
			c0,0.002,0,0.004,0,0.007v138.317c0,10.398,8.43,18.827,18.827,18.827s18.827-8.43,18.827-18.827V153.765
			C511.876,129.322,491.576,109.435,466.75,109.435z"/>
	</g>
</g>
<g>
	<g>
		<path d="M198.242,425.8l-14.798-63.06l-31.593,35.591l8.531,36.354c2.455,10.458,12.923,16.942,23.373,14.487
			C194.21,446.718,200.697,436.254,198.242,425.8z"/>
	</g>
</g>
<g>
	<g>
		<circle cx="65.406" cy="110.928" r="35.76"/>
	</g>
</g>
<g>
	<g>
		<g>
			<path d="M309.553,240.416c-9.695-6.017-16.012-16.292-16.752-27.894h-74.966c-7.753,0-13.947,6.326-13.947,13.947v28.159H186.5
				c4.086-3.178,6.584-8.251,6.238-13.806c-0.557-8.93-8.238-15.733-17.179-15.164l-55.942,3.486l-31.744-41.864l25.361,19.818
				l-1.419-21.395c-0.884-13.314-12.393-23.391-25.706-22.507l-42.989,2.852c-13.313,0.884-23.391,12.393-22.507,25.706
				c0.377,5.687,7.849,117.373,7.548,116.617c0.794,6.614,4.977,12.831,12.245,15.825H12.317c-6.755,0-12.36,5.498-12.317,12.396
				c0.042,6.84,5.886,12.238,12.725,12.238h29.446v71.984c1.415-5.056,3.987-9.87,7.756-14.023l16.879-18.601v-39.36h33.415
				l16.866,6.947l-55.372,61.022c-7.339,8.089-6.94,20.951,1.3,28.119c7.971,6.934,20.046,6.228,27.155-1.609l74.319-81.902
				c9.055-9.978,5.438-25.925-6.995-31.046l-75.939-31.276l91.878,20.995l-4.329-18.45c-0.031-0.132-0.075-0.258-0.108-0.388
				l15.945,21.777c2.626,3.587,6.807,5.707,11.253,5.707c15.471,0,93.266,0,106.154,0v101.053c0,7.679,6.007,14.266,13.685,14.408
				c7.823,0.144,14.209-6.154,14.209-13.945V328.727h19.181c0-16.985,0-71.982,0-89.062
				C343.451,242.391,327.582,251.603,309.553,240.416z M150.174,286.628H118.51l-0.576-8.675c-4.456,0.278-2.355,0.147-10.736,0.669
				c-9.351,0.582-17.679-4.983-21.067-13.186L62.05,206.858l36.994,48.787c3.233,4.263,8.416,6.719,13.92,6.382l38.721-2.413
				c-4.224,5.034-4.282,12.138-0.573,17.201l9.356,12.778C157.456,287.712,153.922,286.628,150.174,286.628z"/>
			<path d="M28.161,308.37c-0.012-0.098-0.03-0.196-0.04-0.294C28.14,308.266,28.153,308.35,28.161,308.37z"/>
		</g>
	</g>
</g>
<g>
	<g>
		<path d="M417.051,91.186c-0.037,0-0.077,0-0.114,0c-10.149,0-18.408,8.194-18.469,18.36c-0.042,7.084,3.926,13.353,9.936,16.491
			l-0.067,11.086c5.954-0.396,11.661,0.683,16.907,3.037l0.032-14.022c5.976-3.029,10.091-9.208,10.134-16.369
			C435.472,99.567,427.252,91.247,417.051,91.186z"/>
	</g>
</g>
<g>
	<g>
		<path d="M427.857,164.787c-0.004-0.011-0.011-0.021-0.017-0.031c-4.29-9.359-15.433-13.612-24.928-9.281l-45.817,20.906
			c2.333-8.499,4.286-15.598,5.823-21.184c15.821-7.202,20.867-9.39,28.515-12.88c0.032-5.328,0.022-3.657,0.049-8.124
			c-6.396-6.614-9.941-15.458-9.886-24.75c0-0.002,0-0.006,0-0.008c-3.684,0-4.833,0-4.755,0c-2.563,0-6.344,0-11.801,0
			c-16.852,0-31.734,11.349-36.194,27.599c-20.808,75.819-18.506,67.399-18.805,68.575c-1.921,7.614,1.096,15.483,7.295,19.921
			c0.099,0.07,0.201,0.136,0.301,0.204c5.342,3.67,12.336,4.408,18.465,1.613l82.444-37.619
			C428.004,185.414,432.172,174.246,427.857,164.787z"/>
	</g>
</g>
<g>
</g>
<g>
</g>
<g>
</g>
<g>
</g>
<g>
</g>
<g>
</g>
<g>
</g>
<g>
</g>
<g>
</g>
<g>
</g>
<g>
</g>
<g>
</g>
<g>
</g>
<g>
</g>
<g>
</g>
</svg>
