<?xml version="1.0" encoding="iso-8859-1"?>
<!-- Generator: Adobe Illustrator 19.0.0, SVG Export Plug-In . SVG Version: 6.00 Build 0)  -->
<svg version="1.1" id="Layer_1" xmlns="http://www.w3.org/2000/svg" xmlns:xlink="http://www.w3.org/1999/xlink" x="0px" y="0px"
	 viewBox="0 0 511.999 511.999" style="enable-background:new 0 0 511.999 511.999;" xml:space="preserve">
<g>
	<g>
		<path d="M379.264,179.57l-14.308,7.695c-2.442-9.911-2.507-10.21-3.082-12.632c-3.057-12.882-7.384-31.092-23.157-40.869
			c-2.091,2.238-4.349,4.329-6.773,6.231c-13.731,10.77-32.348,15.63-50.926,11.312c-22.574-5.247-39.23-22.609-44.724-43.614
			l-20.927-4.864c-26.591-6.18-53.375,10.404-59.675,36.908c-3.978,16.513-7.878,32.7-11.819,49.061
			c-1.628,6.758,0.228,13.845,4.741,18.914l23.381,26.254l31.424-27.962l-16.076-18.051l5.723-23.756l3.533-14.669l0.002-0.009
			c0.373-1.567,1.592-2.864,3.18-3.135c3.253-0.554,5.592,2.249,4.941,5.053l-4.732,20.359l53.934,60.561
			c15.151,17.013,13.65,43.046-3.367,58.199c-16.934,15.082-43.003,13.698-58.201-3.367l-15.215-17.084l-6.538,28.13L58.492,473.135
			c-7.523,11.735-4.106,27.345,7.627,34.868c11.743,7.527,27.351,4.099,34.868-7.628l121.175-189.04l11.168,2.595l44.473,66.739
			l-24.178,99.549c-3.298,13.577,4.71,27.632,18.264,31.022c13.586,3.397,27.341-4.921,30.645-18.528l26.929-110.877
			c1.663-6.851,0.387-14.084-3.523-19.951L284.6,299.846l27.487-118.265c0.79-3.397,5.571-3.545,6.565-0.202
			c3.261,10.951,8.104,27.542,12.069,42.45c3.518,13.226,18.356,19.733,30.331,13.292l39.477-21.227L379.264,179.57z"/>
	</g>
</g>
<g>
	<g>
		<path d="M454.989,162.731c-5.501-10.229-18.251-14.062-28.485-8.563l-10.164,5.466l21.265,36.325l8.822-4.743
			C456.656,185.714,460.489,172.961,454.989,162.731z"/>
	</g>
</g>
<g>
	<g>
		<path d="M238.848,245.784l-7.452-8.368l-31.424,27.961l7.464,8.382c7.709,8.664,21.028,9.437,29.693,1.719
			C245.804,267.753,246.574,254.459,238.848,245.784z"/>
	</g>
</g>
<g>
	<g>
		<path d="M304.547,50.07c-23.436-5.448-46.873,9.132-52.326,32.589c-5.45,23.449,9.141,46.876,32.589,52.326
			c23.438,5.448,46.873-9.133,52.326-32.589C342.587,78.947,327.995,55.521,304.547,50.07z"/>
	</g>
</g>
<g>
	<g>
		<path d="M315.622,2.418c-20.464-4.758-41.694-2.44-60.515,6.484c-1.632,0.774-2.868,2.194-3.412,3.917
			c-0.544,1.723-0.35,3.598,0.545,5.168c3.53,6.197,8.8,15.449,11.565,20.303c0.923,1.62,2.945,2.233,4.614,1.403
			c12.285-6.114,26.265-7.734,39.616-4.633c30.604,7.114,50.108,36.993,44.772,67.574c-0.321,1.834,0.847,3.602,2.661,4.023
			c5.392,1.256,15.799,3.674,22.759,5.291c1.76,0.409,3.613,0.066,5.11-0.947c1.497-1.013,2.502-2.605,2.779-4.391
			C393.438,59.276,363.02,13.434,315.622,2.418z"/>
	</g>
</g>
<g>
</g>
<g>
</g>
<g>
</g>
<g>
</g>
<g>
</g>
<g>
</g>
<g>
</g>
<g>
</g>
<g>
</g>
<g>
</g>
<g>
</g>
<g>
</g>
<g>
</g>
<g>
</g>
<g>
</g>
</svg>
