<?xml version="1.0" encoding="iso-8859-1"?>
<!-- Generator: Adobe Illustrator 19.0.0, SVG Export Plug-In . SVG Version: 6.00 Build 0)  -->
<svg version="1.1" id="Layer_1" xmlns="http://www.w3.org/2000/svg" xmlns:xlink="http://www.w3.org/1999/xlink" x="0px" y="0px"
	 viewBox="0 0 511.997 511.997" style="enable-background:new 0 0 511.997 511.997;" xml:space="preserve">
<g>
	<g>
		<path d="M301.579,333.152l-19.021-6.88c-2.923,2.154-6.072,4.04-9.442,5.608c-14.002,6.52-25.819,5.013-28.493,5.013
			c-4.599,0-8.624,2.969-10.015,7.391c-1.882,5.981-4.369,11.558-7.367,16.689l36.731,13.287l-17.746,107.833
			c-2.307,14.018,7.188,27.253,21.207,29.56c14.024,2.306,27.254-7.192,29.56-21.206l21.217-128.928
			C320.223,349.292,313.232,337.368,301.579,333.152z"/>
	</g>
</g>
<g>
	<g>
		<path d="M451.632,232.108c-0.935-11.435-10.689-20.013-22.027-19.654c0.027,3.715-0.61,7.444-1.92,11.039
			c-2.885,7.912-8.677,14.227-16.313,17.782c-4.202,1.957-8.677,2.948-13.299,2.948c-0.065,0-0.132,0-0.197,0
			c-2.886,3.483-6.57,6.397-10.937,8.43c-11.227,5.226-24.117,3.331-33.36-4.278l-34.527,16.077l112.962-9.231
			C443.812,254.256,452.597,243.909,451.632,232.108z"/>
	</g>
</g>
<g>
	<g>
		<path d="M283.26,198.641c-19.057-5.106-33.844-18.823-40.905-36.189c-16.955-7.844-16.643-7.794-19.227-8.6
			c-1.101-1.16,4.257,3.719-63.373-57.201l-38.37-84.107C116.471,1.772,103.756-2.974,92.983,1.938
			c-10.771,4.914-15.52,17.63-10.606,28.401l40.216,88.156c1.219,2.672,2.974,5.065,5.156,7.03l56.309,50.722l-16.883,36.492
			c2.491,0.774,4.973,1.675,7.442,2.702c4.599,1.913,9.778,0.331,12.57-3.504c5.757-7.906,13.06-13.957,21.708-17.984
			c23.453-10.92,50.208-3.773,69.531,13.665l15.31-7.129C290.208,200.177,286.702,199.563,283.26,198.641z"/>
	</g>
</g>
<g>
	<g>
		<path d="M198.924,392.444l-1.024-3.741c-9.639,4.765-19.765,7.06-30.389,7.06c-7.665,0-15.347-1.221-22.876-3.575l-76.698,75.785
			c-10.106,9.986-10.204,26.274-0.217,36.38c9.991,10.112,26.279,10.198,36.38,0.217l88.092-87.043
			C198.801,410.996,201.375,401.408,198.924,392.444z"/>
	</g>
</g>
<g>
	<g>
		<path d="M414.581,182.095c-3.262-7.005-11.633-10.081-18.651-6.801l-2.376,1.106c-0.021-0.047-2.844-6.106-2.844-6.106
			c-2.647-5.681-9.418-8.016-14.919-5.436c-5.621,2.618-8.058,9.299-5.441,14.921l2.841,6.102l-4.072,1.896
			c-2.949-6.334-2.852-6.122-2.852-6.122c-2.65-5.661-9.382-7.991-14.91-5.42c-5.102,2.376-8.403,8.559-5.133,15.579l2.535,5.443
			l-43.9,20.442l-31.347,14.596c-12.57-17.004-34.357-28.552-54.099-20.774c-15.963,6.289-14.043,15.599-27.405,21.992
			c-22.386,10.725-37.12-13.866-67.898,0.463c-29.75,13.853-39.497,55.776-21.898,93.568c0.001,0.002,0.002,0.003,0.003,0.006
			c17.797,38.216,59.883,60.56,91.309,40.351c10.337-6.647,17.364-16.849,21.258-28.332c10.448-30.813,31.787-19.329,47.127-25.002
			c25.057-9.281,28.319-42.226,23.455-56.819l75.247-35.038l2.841,6.102c2.562,5.502,9.198,8.105,14.921,5.441
			c5.623-2.618,8.058-9.298,5.441-14.921l-2.841-6.102l4.072-1.896l2.841,6.101c2.602,5.587,9.264,8.069,14.921,5.441
			c5.623-2.618,8.058-9.298,5.441-14.921l-2.841-6.101l2.375-1.106C414.659,197.544,417.908,189.239,414.581,182.095z
			 M166.153,340.714c-5.625,2.619-12.303,0.181-14.921-5.441l-23.385-50.224c-2.618-5.623-0.183-12.303,5.44-14.921
			c5.621-2.619,12.302-0.182,14.921,5.44l23.385,50.224C174.211,331.416,171.776,338.096,166.153,340.714z M223.488,291.29
			c-9.175,4.273-20.078,0.297-24.35-8.878c-4.273-9.175-0.297-20.078,8.878-24.35c9.175-4.273,20.078-0.297,24.35,8.878
			C236.639,276.115,232.665,287.017,223.488,291.29z"/>
	</g>
</g>
<g>
	<g>
		<path d="M310.613,96.537c-23.698-6.35-48.064,7.719-54.413,31.418c-6.35,23.701,7.717,48.063,31.418,54.413
			c23.707,6.352,48.065-7.724,54.413-31.418C348.382,127.249,334.315,102.886,310.613,96.537z"/>
	</g>
</g>
<g>
</g>
<g>
</g>
<g>
</g>
<g>
</g>
<g>
</g>
<g>
</g>
<g>
</g>
<g>
</g>
<g>
</g>
<g>
</g>
<g>
</g>
<g>
</g>
<g>
</g>
<g>
</g>
<g>
</g>
</svg>
