<?xml version="1.0" encoding="iso-8859-1"?>
<!-- Generator: Adobe Illustrator 19.0.0, SVG Export Plug-In . SVG Version: 6.00 Build 0)  -->
<svg version="1.1" id="Layer_1" xmlns="http://www.w3.org/2000/svg" xmlns:xlink="http://www.w3.org/1999/xlink" x="0px" y="0px"
	 viewBox="0 0 512.001 512.001" style="enable-background:new 0 0 512.001 512.001;" xml:space="preserve">
<g>
	<g>
		<path d="M471.25,132.501c-3.484-9.178-13.749-13.797-22.926-10.313l-58.728,22.287l-76.528-5.667H224.93l-71.748-8.417
			l-46.573-57.181c-0.327-0.402-0.676-0.775-1.03-1.141c1.724-8.495-2.583-16.818-10.002-20.535l9.028-42.623
			c0.244-1.155,0.02-2.361-0.624-3.351c-0.644-0.991-1.655-1.684-2.81-1.928L84.482,0.098c-2.406-0.51-4.77,1.027-5.28,3.434
			l-9.028,42.623c-8.341,0.391-15.699,6.322-17.511,14.872l-12.911,60.957c-0.854,4.033,1.722,7.993,5.755,8.847l38.288,8.11
			c4.033,0.854,7.993-1.722,8.847-5.755l3.501-16.53l34.026,41.776c2.92,3.584,7.119,5.89,11.711,6.428l75.357,8.841
			c0,0-0.419,311.84-0.419,315.182c0,12.766,10.348,23.113,23.113,23.113c12.766,0,23.113-10.349,23.113-23.113V304.133h9.981
			c0.003,4.018-3.036-9.762,45.443,190.195c3.002,12.38,15.47,20.028,27.909,17.017c12.406-3.007,20.024-15.504,17.017-27.909
			l-44.133-182.029V174.603l71.52,5.626c2.623,0.205,5.247-0.17,7.701-1.101l62.455-23.701
			C470.116,151.944,474.734,141.679,471.25,132.501z"/>
	</g>
</g>
<g>
	<g>
		<circle cx="268.039" cy="66.902" r="39.919"/>
	</g>
</g>
<g>
</g>
<g>
</g>
<g>
</g>
<g>
</g>
<g>
</g>
<g>
</g>
<g>
</g>
<g>
</g>
<g>
</g>
<g>
</g>
<g>
</g>
<g>
</g>
<g>
</g>
<g>
</g>
<g>
</g>
</svg>
