<?xml version="1.0" encoding="iso-8859-1"?>
<!-- Generator: Adobe Illustrator 19.0.0, SVG Export Plug-In . SVG Version: 6.00 Build 0)  -->
<svg version="1.1" id="Layer_1" xmlns="http://www.w3.org/2000/svg" xmlns:xlink="http://www.w3.org/1999/xlink" x="0px" y="0px"
	 viewBox="0 0 511.999 511.999" style="enable-background:new 0 0 511.999 511.999;" xml:space="preserve">
<g>
	<g>
		<path d="M141.548,90.904l-12.465,8.763C118.314,81.879,95.237,76.03,77.291,86.611c-18.078,10.659-24.092,33.954-13.433,52.033
			c10.662,18.084,33.961,24.089,52.033,13.433c11.789-6.951,18.443-19.277,18.693-32.025l9.124-6.415
			c1.428,2.032,2.896,4.333,6.075,6.91c1.866,1.512,3.929,2.759,6.128,3.701c2.574-44.109,2.282-41.984,3.049-45.584L141.548,90.904
			z"/>
	</g>
</g>
<g>
	<g>
		<path d="M269.58,41.718L242.588,3.321c-3.578-5.092-11.368-4.15-13.656,1.608l-6.656,16.742
			c-5.888,14.811-14.614,22.763-26.011,30.773c7.815,1.06,14.956,4.904,20.097,10.453c8.851-5.088,18.791-7.939,29.073-8.277
			l18.007-0.594C269.645,53.82,273.147,46.793,269.58,41.718z"/>
	</g>
</g>
<g>
	<g>
		<path d="M497.748,136.479l-58.886-15.361c-5.478-1.429-9.986,4.5-7.113,9.4l12.704,21.664c-4.032,9.615-4.751,22.068-0.858,34.091
			c7.569,3.26,13.875,9.215,17.431,16.956c3.856,8.395,4.014,17.772,0.904,26.053c15.665-8.45,25.362-27.306,22.114-45.669
			c-4.463-16.233-1.879-24.501-1.738-25.456l17.058-10.002C504.246,145.292,503.243,137.913,497.748,136.479z"/>
	</g>
</g>
<g>
	<g>
		<path d="M471.08,486.367l-18.048-123.604c-0.672-4.603-2.761-8.883-5.977-12.244l-50.461-52.757l-7.828-24.106l-0.192,0.088
			l-13.309,6.107c-14.612,6.711-29.58,1.133-34.865-4.321c-7.457-7.697-39.592-40.865-44.398-45.827l55.316,35.247l0.001,0.001
			c5.601,3.405,12.155,3.585,17.602,1.086h0.001c6.114-2.805,63.109-28.958,69.122-31.717c9.385-4.311,13.46-15.407,9.169-24.747
			c0-0.001-0.001-0.002-0.002-0.004c-4.359-9.488-15.556-13.385-24.746-9.166l-58.66,26.944l-51.225-31.668l50.152,15.433
			l4.982-2.289l-9.61-29.591c-4.452-13.708-19.164-21.222-32.879-16.793l-44.339,14.318c-13.739,4.438-21.282,19.196-16.821,32.933
			l41.417,128.395l0.023-0.037c0.077,0.208,0.15,0.418,0.233,0.625c2.424,6.048,18.736,46.742,22.647,56.498l-44.916,83.852
			c-5.84,10.902-1.736,24.474,9.167,30.314c10.905,5.841,24.476,1.732,30.314-9.167l49.849-93.061
			c3.127-5.837,3.509-12.759,1.046-18.907l-19.634-48.983l15.331-4.951l40.209,42.038l17.013,116.527
			c1.791,12.262,13.183,20.709,25.394,18.924C464.394,509.975,472.867,498.605,471.08,486.367z"/>
	</g>
</g>
<g>
	<g>
		<path d="M403.001,120.473c-4.685-11.272-7.946-23.095-19.863-33.163c-8.555-7.325-18.074-10.536-26.945-10.529
			c-5.478,0.004-11.69,1.161-17.711,7.853c-5.571,5.998-5.975,8.044-16.035,19.98c-8.337-16.953-28.062-25.671-46.571-19.695
			c-20.327,6.564-31.484,28.364-24.92,48.691c6.564,20.327,28.364,31.484,48.691,24.921c17.595-5.682,28.309-22.78,26.617-40.456
			c4.275-4.391,13.762-17.042,20.878-19.764c19.332-5.869,33.663,49.259,49.563,97.197c20.799-9.554,23.969-11.773,32.684-11.99
			C407.892,132.291,417.503,155.301,403.001,120.473z"/>
	</g>
</g>
<g>
	<g>
		<path d="M192.825,67.368c-9.891-0.578-18.772,6.968-19.371,17.236l-3.695,63.313l-52.016,30.354l8.057-8.026
			c-2.46-0.365-3.186-0.282-12.853-0.282c-10.363,3.354-21.681,3.543-32.629,0h-4.09c-14.176,0-25.669,11.492-25.669,25.669v131.449
			l-2.743,65.555L11.155,481.61c-4.629,11.235,0.726,24.095,11.961,28.724c11.227,4.627,24.094-0.722,28.724-11.961l38.136-92.561
			c0.977-2.373,1.532-4.898,1.64-7.462l2.934-70.098c0.013-0.308,0.014-0.613,0.016-0.919h7.427l23.86,65.054l4.591,98.629
			c0.562,12.082,10.792,21.51,23,20.955c12.138-0.565,21.52-10.863,20.955-23.001l-4.748-102.006
			c-0.104-2.239-0.55-4.449-1.322-6.553l-20.655-56.316V205.582l-8.379,2.57l57.438-33.517c5.315-3.102,8.705-8.651,9.062-14.767
			l4.267-73.127C210.65,76.614,202.916,67.957,192.825,67.368z"/>
	</g>
</g>
<g>
</g>
<g>
</g>
<g>
</g>
<g>
</g>
<g>
</g>
<g>
</g>
<g>
</g>
<g>
</g>
<g>
</g>
<g>
</g>
<g>
</g>
<g>
</g>
<g>
</g>
<g>
</g>
<g>
</g>
</svg>
