<?xml version="1.0" encoding="iso-8859-1"?>
<!-- Generator: Adobe Illustrator 19.0.0, SVG Export Plug-In . SVG Version: 6.00 Build 0)  -->
<svg version="1.1" id="Capa_1" xmlns="http://www.w3.org/2000/svg" xmlns:xlink="http://www.w3.org/1999/xlink" x="0px" y="0px"
	 viewBox="0 0 479.932 479.932" style="enable-background:new 0 0 479.932 479.932;" xml:space="preserve">
<g>
	<path style="fill:#7D8D9C;" d="M223.965,479.932h-16v-9.368c-0.02-6.371,2.512-12.485,7.032-16.976l9.184-9.184
		c2.884-2.882,3.139-7.472,0.592-10.656l-15.312-19.136c-6.843-8.547-7.033-20.641-0.464-29.4l12.28-16.36
		c1.264-1.688,1.81-3.807,1.52-5.896l-14.4-40.344l15.072-5.36l14.904,42.096c1.338,6.695-0.239,13.643-4.336,19.104l-12.24,16.36
		c-2.188,2.921-2.122,6.952,0.16,9.8l15.312,19.136c7.66,9.557,6.895,23.349-1.776,32l-9.184,9.184
		c-1.502,1.502-2.346,3.54-2.344,5.664L223.965,479.932z"/>
	<path style="fill:#7D8D9C;" d="M71.965,479.932h-16v-20.224c-0.005-1.243-0.293-2.468-0.84-3.584l-9.16-18.296
		c-4.624-9.242-2.813-20.406,4.496-27.712l15.688-15.68c2.443-2.436,3.049-6.163,1.504-9.248l-9.16-18.296
		c-1.659-3.336-2.524-7.01-2.528-10.736v-12.224h16v12.224c0.005,1.243,0.293,2.468,0.84,3.584l9.16,18.296
		c4.622,9.244,2.807,20.408-4.504,27.712l-15.68,15.688c-2.439,2.435-3.045,6.158-1.504,9.24l9.16,18.296
		c1.659,3.336,2.524,7.01,2.528,10.736V479.932z"/>
</g>
<path style="fill:#ED917E;" d="M63.965,279.436c-11.367-10.009-28.401-10.009-39.768,0c-10.01,8.743-11.037,23.945-2.294,33.954
	c0.712,0.815,1.478,1.582,2.294,2.294l39.768,36.248l39.768-36.248c10.01-8.743,11.037-23.945,2.294-33.954
	c-0.712-0.815-1.478-1.582-2.294-2.294C92.367,269.427,75.332,269.427,63.965,279.436L63.965,279.436z"/>
<path style="fill:#F98C96;" d="M356.517,33.452c-37.634-34.025-94.918-34.025-132.552,0c-37.634-34.025-94.918-34.025-132.552,0
	c-34.021,30.63-36.77,83.04-6.14,117.06c1.938,2.152,3.987,4.202,6.14,6.14l103.592,96.36l-10.928,65.6
	c-0.729,4.358,2.213,8.481,6.57,9.21c0.435,0.073,0.876,0.11,1.318,0.11h64c4.418-0.001,7.999-3.584,7.998-8.002
	c0-0.441-0.037-0.882-0.11-1.318l-10.928-65.6l103.584-96.28c34.045-30.603,36.835-83.011,6.232-117.056
	C360.778,37.493,358.701,35.415,356.517,33.452L356.517,33.452z"/>
<g>
	<path style="fill:#FFD782;" d="M95.965,103.076c-4.418,0-8-3.582-8-8c0.121-16.809,7.307-32.793,19.8-44.04
		c13.62-12.466,31.466-19.294,49.928-19.104h2.52c4.418,0.137,7.889,3.83,7.752,8.248s-3.83,7.889-8.248,7.752h-2.024
		c-14.421-0.182-28.374,5.116-39.04,14.824c-9.218,8.232-14.548,19.962-14.688,32.32C103.965,99.494,100.384,103.076,95.965,103.076
		L95.965,103.076z"/>
	<path style="fill:#FFD782;" d="M447.965,287.932h-128c0-22.091,17.909-40,40-40c0-13.255,10.745-24,24-24s24,10.745,24,24
		C430.057,247.932,447.965,265.841,447.965,287.932z"/>
</g>
<path style="fill:#FDBD40;" d="M462.781,391.932c0.749-2.602,1.147-5.293,1.184-8c-0.393-18.054-15.338-32.375-33.392-32
	c-3.6,0.042-7.171,0.646-10.584,1.792c-9.315-26.385-38.256-40.223-64.641-30.907c-15.609,5.511-27.541,18.299-31.959,34.251
	c-5.415-3.358-11.66-5.136-18.032-5.136c-18.054-0.375-32.999,13.946-33.392,32c0.037,2.707,0.435,5.398,1.184,8H462.781z"/>
<path d="M109.125,321.596c13.273-11.716,14.534-31.974,2.818-45.246c-0.88-0.997-1.821-1.938-2.818-2.818
	c-12.57-11.029-30.829-12.665-45.16-4.048c-14.322-8.625-32.577-7.008-45.16,4c-13.275,11.727-14.529,31.995-2.802,45.27
	c0.875,0.991,1.811,1.927,2.802,2.802l37.16,33.912v0.688c0.004,3.726,0.869,7.4,2.528,10.736l9.16,18.296
	c1.545,3.085,0.939,6.812-1.504,9.248l-15.688,15.68c-7.309,7.306-9.12,18.47-4.496,27.712l9.2,18.296
	c0.547,1.116,0.835,2.341,0.84,3.584v20.224h16v-20.224c-0.004-3.726-0.869-7.4-2.528-10.736l-9.16-18.296
	c-1.541-3.082-0.935-6.805,1.504-9.24l15.68-15.688c7.311-7.304,9.126-18.468,4.504-27.712l-9.16-18.296
	c-0.561-1.112-0.862-2.338-0.88-3.584v-0.688L109.125,321.596z M23.965,297.532c0.049-4.682,2.085-9.123,5.6-12.216
	c8.288-7.285,20.696-7.285,28.984,0c3.055,2.787,7.729,2.787,10.784,0c8.288-7.285,20.696-7.285,28.984,0
	c6.742,5.766,7.533,15.907,1.767,22.649c-0.542,0.634-1.133,1.225-1.767,1.767l-34.352,31.376l-34.4-31.336
	C26.042,306.675,24.006,302.223,23.965,297.532z"/>
<path d="M391.965,95.076c-0.081-25.708-10.969-50.197-30-67.48c-38.729-34.931-96.978-36.92-138-4.712
	C182.94-9.303,124.708-7.315,85.973,27.596c-37.268,33.626-40.221,91.098-6.594,128.366c2.084,2.309,4.285,4.51,6.594,6.594
	l107.456,99.912l-10.912,65.464h27.848l12.472,35.024c0.29,2.089-0.256,4.208-1.52,5.896l-12.32,16.36
	c-6.569,8.759-6.379,20.853,0.464,29.4l15.304,19.136c2.547,3.184,2.292,7.774-0.592,10.656l-9.184,9.184
	c-4.517,4.492-7.046,10.606-7.024,16.976v9.368h16v-9.368c-0.002-2.124,0.842-4.162,2.344-5.664l9.184-9.184
	c8.671-8.651,9.436-22.443,1.776-32l-15.312-19.136c-2.282-2.848-2.348-6.879-0.16-9.8l12.272-16.36
	c4.097-5.461,5.674-12.409,4.336-19.104l-11.12-31.384h38.128l-10.912-65.464l107.456-99.912
	C380.993,145.275,391.883,120.785,391.965,95.076L391.965,95.076z M246.517,311.932h-45.104l6.064-36.408l11.04,10.264
	c3.071,2.856,7.825,2.856,10.896,0l11.04-10.264L246.517,311.932z M223.965,269.012L96.861,150.836
	C66.066,123.234,63.477,75.893,91.08,45.098c1.82-2.031,3.751-3.961,5.782-5.782c34.552-31.188,87.096-31.188,121.648,0
	c3.071,2.856,7.825,2.856,10.896,0c34.554-31.193,87.102-31.193,121.656,0c30.795,27.602,33.384,74.943,5.782,105.738
	c-1.82,2.031-3.751,3.961-5.782,5.782L223.965,269.012z"/>
<path d="M160.213,31.972h-2.52c-18.462-0.19-36.308,6.638-49.928,19.104c-12.483,11.238-19.667,27.205-19.8,44c0,4.418,3.582,8,8,8
	s8-3.582,8-8c0.14-12.358,5.47-24.088,14.688-32.32c10.666-9.708,24.619-15.006,39.04-14.824h2.024
	c4.418,0.137,8.111-3.334,8.248-7.752s-3.334-8.111-7.752-8.248V31.972z"/>
<path d="M319.965,295.932h128c4.418,0,8-3.582,8-8c-0.029-23.75-17.398-43.919-40.88-47.472
	c-4.116-17.187-21.386-27.783-38.573-23.667c-11.715,2.806-20.862,11.952-23.667,23.667c-23.482,3.553-40.851,23.722-40.88,47.472
	C311.965,292.35,315.547,295.932,319.965,295.932z M359.965,255.932c4.418,0,8-3.582,8-8c0-8.837,7.163-16,16-16s16,7.163,16,16
	c0,4.418,3.582,8,8,8c14.586,0.022,27.321,9.883,30.992,24H328.973C332.644,265.815,345.379,255.954,359.965,255.932z"/>
<path d="M424.853,344.364c-14.67-29.091-50.145-40.782-79.236-26.112c-11.861,5.981-21.356,15.791-26.948,27.84
	c-4.293-1.43-8.788-2.159-13.312-2.16c-22.454-0.33-40.954,17.548-41.392,40c0.037,3.412,0.526,6.805,1.456,10.088
	c0.943,3.488,4.107,5.911,7.72,5.912h189.648c3.613-0.001,6.777-2.424,7.72-5.912c0.93-3.283,1.419-6.676,1.456-10.088
	c-0.357-22.486-18.875-40.425-41.361-40.069C428.678,343.894,426.756,344.061,424.853,344.364L424.853,344.364z M279.965,383.932
	c0.41-13.628,11.763-24.359,25.392-24c4.888,0.002,9.678,1.368,13.832,3.944c3.753,2.331,8.686,1.179,11.017-2.575
	c0.451-0.727,0.783-1.521,0.983-2.353c6.434-22.672,30.029-35.835,52.701-29.401c13.246,3.759,23.865,13.68,28.515,26.641
	c1.359,4.2,5.862,6.505,10.064,5.152c2.612-0.888,5.346-1.363,8.104-1.408c13.629-0.359,24.982,10.372,25.392,24H279.965z"/>
<g>
</g>
<g>
</g>
<g>
</g>
<g>
</g>
<g>
</g>
<g>
</g>
<g>
</g>
<g>
</g>
<g>
</g>
<g>
</g>
<g>
</g>
<g>
</g>
<g>
</g>
<g>
</g>
<g>
</g>
</svg>
